<svg viewBox="0 0 1000 1000" xmlns="http://www.w3.org/2000/svg" xmlns:xlink="http://www.w3.org/1999/xlink" overflow="hidden"><g><path d="M10 347.1 115.6 347.1 115.6 458.7 94.8 477.3 115.6 494.8 115.6 577.4 78.4 613.5 53.8 613.5 53.8 632.6 10 652.9 10 347.1 10 347.1 10 347.1ZM53.8 458.7 71.9 458.7 71.9 383.2 53.8 383.2 53.8 458.7 53.8 458.7ZM53.8 494.8 53.8 577.4 71.9 577.4 71.9 494.8 53.8 494.8 53.8 494.8ZM122.2 347.1 312 347.1 297.8 384.8 295.1 384.8 295.1 613.5 253.5 652.9 219.6 652.9 219.6 615.7 250.3 615.7 250.3 384.8 122.3 384.8 122.2 347.1 122.2 347.1ZM133.1 413.8 239.3 413.8 239.3 581.2 201.6 616.2 133.2 616.2 133.1 413.8 133.1 413.8ZM174.7 581.8 197.7 581.8 197.7 448.8 174.7 448.8 174.7 581.8 174.7 581.8ZM352.5 619 469.6 619 469.6 591.7 355.8 591.7 355.8 557.8 469.6 557.8 469.6 524.4 355.8 524.4 355.8 347.1 640.3 347.1 640.3 485 590 524.3 523.2 524.3 523.2 557.7 643 557.7 626 591.6 523.2 591.6 523.2 619 648.5 619 633.2 652.9 352.5 652.9 352.5 619 352.5 619ZM469.6 380.4 407.2 380.4 407.2 419.2 469.6 419.2 469.6 380.4 469.6 380.4ZM469.6 452.1 407.2 452.1 407.2 491.5 469.6 491.5 469.6 452.1 469.6 452.1ZM588.9 380.4 523.2 380.4 523.2 419.2 585.6 419.2 570.8 452 523.2 452 523.2 491.4 588.9 491.4 588.9 380.4 588.9 380.4ZM689.6 347.1 990 347.1 969.7 387.6 689.6 387.6 689.6 347.1 689.6 347.1ZM988.4 652.9 954.5 518.3 900.3 518.3 923.3 612.4 752.5 612.4 802.9 498 969.8 498 988.9 457.5 689.6 457.5 689.6 498 746.5 498 691.8 616.8 691.8 652.9 918.3 652.9 927 627.7 933.1 652.9 988.4 652.9 988.4 652.9Z"/></g></svg>