<svg width="1066.67" height="309.556" viewBox="0 0 282.222 81.9033" xmlns="http://www.w3.org/2000/svg" xmlns:xlink="http://www.w3.org/1999/xlink" id="svg8159" overflow="hidden"><defs id="defs8153"><linearGradient id="linearGradient8271"><stop offset="0" stop-color="#79787D"/><stop offset="0.5" stop-color="#E6E6E6"/><stop offset="1" stop-color="#6B6D6A"/></linearGradient><linearGradient id="linearGradient8251"><stop offset="0" stop-color="#1C3973"/><stop offset="0.370875" stop-color="#1B6BAB"/><stop offset="0.541586" stop-color="#5D93BC"/><stop offset="1" stop-color="#1070A3"/></linearGradient><linearGradient x1="1485.5" y1="7.88862" x2="1678.04" y2="304.686" gradientUnits="userSpaceOnUse" xlink:href="#linearGradient8251" id="linearGradient8253" gradientTransform="matrix(0.264583 0 0 0.264583 -324.009 23.0682)"></linearGradient><linearGradient x1="1567.72" y1="556.889" x2="1640.6" y2="813.887" gradientUnits="userSpaceOnUse" xlink:href="#linearGradient8271" id="linearGradient8273" gradientTransform="matrix(0.264583 0 0 0.264583 -324.009 23.0682)"></linearGradient></defs><path d="M65.1862 12.3475 49.6553 43.6268 76.9986 75.318 26.2494 81.0793 104.998 81.9033 65.1862 12.3475Z" id="path7291" fill="#035BDA" fill-rule="evenodd"/><path d="M62.1236 0 26.4684 29.8392 0 74.495 22.531 72.2309 62.1236 0Z" id="path7293" fill="#035BDA" fill-rule="evenodd"/><path d="M134.763 31.5812 117.709 73.3999 123.507 73.3999 127.942 61.6766 146.793 61.6766 151.507 73.3999 157.273 73.3999 140.157 31.5812 134.763 31.5812ZM137.305 36.655 137.429 36.655C137.656 37.9382 137.884 38.8719 138.111 39.4552L145.088 57.2735 129.677 57.2735 136.592 39.4552C136.861 38.7747 137.099 37.841 137.305 36.655ZM269.168 42.838C265.013 42.838 261.531 44.3054 258.719 47.2411 255.929 50.1573 254.534 53.9394 254.534 58.5859 254.534 63.5046 255.815 67.3242 258.379 70.0461 260.942 72.7485 264.466 74.0997 268.951 74.0997 273.54 74.0997 277.23 73.1476 280.021 71.2424L280.021 66.7513C277.023 68.9676 273.737 70.0751 270.161 70.0751 266.978 70.0751 264.477 69.1711 262.658 67.363 260.839 65.555 259.887 62.9888 259.805 59.6642L282.222 59.6642 282.222 57.1564C282.222 52.6654 281.085 49.1567 278.812 46.6293 276.538 44.1019 273.323 42.838 269.168 42.838ZM246.45 43.0132C244.611 43.0132 242.947 43.6063 241.458 44.7922 239.97 45.9587 238.865 47.5912 238.141 49.6909L238.017 49.6909 238.017 43.5378 232.932 43.5378 232.932 73.3999 238.017 73.3999 238.017 58.1775C238.017 54.853 238.741 52.2283 240.188 50.3036 241.655 48.3788 243.474 47.4163 245.645 47.4163 247.319 47.4163 248.601 47.7368 249.489 48.3784L249.489 43.4208C248.787 43.1486 247.773 43.0132 246.45 43.0132ZM162.442 43.5378 162.442 47.6205 179.465 47.6205 160.675 71.9131 160.675 73.3998 186.751 73.3998 186.751 69.3172 168.147 69.3172 186.937 44.9084 186.937 43.5378 162.442 43.5378ZM194.586 43.5378 194.586 61.3852C194.586 69.8617 198.369 74.0997 205.935 74.0997 210.359 74.0997 213.624 72.2916 215.733 68.6755L215.856 68.6755 215.856 73.3999 220.942 73.3999 220.942 43.5378 215.856 43.5378 215.856 60.7434C215.856 63.5235 215.051 65.7788 213.438 67.5091 211.847 69.22 209.811 70.0751 207.33 70.0751 202.204 70.0751 199.64 66.9263 199.64 60.6272L199.64 43.5378 194.586 43.5378ZM269.076 46.8626C271.556 46.8626 273.489 47.6303 274.874 49.1662 276.28 50.7021 276.993 52.8499 277.013 55.6106L259.866 55.6106C260.259 53.0055 261.293 50.8961 262.967 49.2824 264.642 47.6688 266.678 46.8626 269.076 46.8626Z" id="text7295" fill="#035BDA" font-family="Arial" font-weight="400" font-size="37.4" letter-spacing="0.99"/></svg>