<svg width="120" height="60" xmlns="http://www.w3.org/2000/svg" xmlns:xlink="http://www.w3.org/1999/xlink" overflow="hidden"><g fill="#3366CC"><path d="M33.936 30.17C35.916 30.17 36.906 31.64 36.906 33.592 36.906 35.628 35.973 37.042 33.936 37.042 31.928 37.042 30.966 35.628 30.966 33.592 30.966 31.612 31.966 30.17 33.936 30.17M33.936 35.714C34.473 35.714 34.7 35.234 34.7 33.594 34.7 32.067 34.53 31.501 33.936 31.501 33.342 31.501 33.172 32.067 33.172 33.594 33.172 35.234 33.398 35.714 33.936 35.714M38.264 31.838 37.414 31.838 37.414 30.338 38.264 30.338 38.264 29.603C38.264 27.991 39.056 27.397 40.47 27.397 40.894 27.397 41.205 27.454 41.545 27.482L41.545 29.094C41.4154 29.0612 41.2826 29.0421 41.149 29.037 40.583 29.037 40.385 29.263 40.385 29.659L40.385 30.339 41.545 30.339 41.545 31.839 40.385 31.839 40.385 36.899 38.265 36.899M13.545 32.149C13.545 31.753 13.347 31.499 12.979 31.499 12.479 31.499 12.299 31.979 12.299 32.376L10.461 32.008C10.687 30.708 11.875 30.208 13.063 30.208 14.336 30.208 15.665 30.745 15.665 32.216L15.665 35.893C15.665 36.657 15.778 36.855 15.863 36.968L13.685 36.968C13.657 36.798 13.628 36.488 13.628 36.374 13.232 36.674 12.61 37.054 11.988 37.054 10.941 37.054 10.121 36.347 10.188 35.131 10.216 33.434 12.168 32.925 13.582 32.755M13.554 33.773C12.819 33.858 12.254 34.141 12.254 34.961 12.254 35.414 12.48 35.668 12.876 35.668 13.131 35.668 13.376 35.498 13.556 35.272ZM19.004 32.205 19.004 36.9 16.884 36.9 16.884 30.34 18.949 30.34 18.949 31.02 18.977 31.02C19.43 30.567 19.995 30.2 20.844 30.2 21.777 30.2 22.314 30.822 22.314 31.727L22.314 36.931 20.2 36.931 20.2 32.406C20.2 32.038 20.06 31.812 19.72 31.812 19.465 31.812 19.22 31.952 19.013 32.208"/><path d="M23.613 27.596 25.733 27.596 25.733 32.319 25.79 32.319 27.346 30.339 29.439 30.339 27.657 32.347 29.457 36.901 27.26 36.901 26.213 34.044 26.185 34.044 25.732 34.544 25.732 36.9 23.612 36.9M7.887 32.065C8.905 32.405 9.641 33.225 9.641 34.413 9.641 35.997 8.368 36.913 6.586 36.913L2.994 36.913 2.994 27.608 6.67 27.608C8.31 27.608 9.414 28.608 9.414 29.871 9.414 31.087 8.564 31.738 7.887 31.991M5.285 35.187 6.162 35.187C6.662 35.187 7.35 34.961 7.35 33.999 7.35 33.319 6.926 32.839 6.162 32.839L5.285 32.839ZM5.285 31.284 6.077 31.284C6.927 31.284 7.265 30.831 7.265 30.266 7.265 29.389 6.671 29.248 6.135 29.248L5.285 29.248ZM84.508 32.15C84.508 31.754 84.338 31.5 83.971 31.5 83.471 31.5 83.291 31.98 83.264 32.377L81.426 32.009C81.652 30.709 82.84 30.209 84.056 30.209 85.329 30.209 86.658 30.746 86.658 32.217L86.658 35.894C86.658 36.658 86.771 36.856 86.856 36.969L84.678 36.969C84.65 36.799 84.621 36.489 84.621 36.375 84.253 36.771 83.621 37.11 83.009 37.11 81.962 37.11 81.142 36.403 81.171 35.187 81.228 33.49 83.151 32.981 84.537 32.811M84.509 33.773C83.774 33.858 83.209 34.141 83.209 34.961 83.209 35.414 83.435 35.668 83.831 35.668 84.086 35.668 84.331 35.498 84.511 35.272ZM62.709 34.073C62.681 34.667 62.822 35.629 63.709 35.629 64.209 35.629 64.642 35.261 64.756 34.724L66.17 35.224C66.085 35.524 65.435 37.006 63.54 37.006 61.504 37.006 60.598 35.366 60.598 33.556 60.598 31.689 61.56 30.134 63.511 30.134 65.547 30.134 66.255 31.888 66.255 33.614L66.255 34.067M64.295 32.79C64.323 32.196 64.238 31.49 63.503 31.49 62.909 31.49 62.683 32.197 62.711 32.79ZM71.978 30.34 74.098 30.34 74.098 36.9 71.978 36.9ZM71.978 27.596 74.098 27.596 74.098 29.491 71.978 29.491Z"/><path d="M78.795 32.772C78.795 32.517 78.795 32.206 78.682 31.952 78.569 31.698 78.399 31.499 78.06 31.499 77.353 31.499 77.268 32.349 77.268 33.677 77.268 35.147 77.494 35.657 78.06 35.657 78.795 35.657 78.88 34.893 78.88 34.413L80.52 34.639C80.35 36.251 79.445 37.071 77.89 37.071 75.967 37.071 74.977 35.401 74.977 33.791 74.977 32.009 75.977 30.199 77.975 30.199 80.238 30.199 80.577 32.151 80.577 32.801M45.222 27.596 48.305 27.596 50.285 36.901 47.985 36.901 47.617 35.006 45.45 35.006 45.054 36.901 43.018 36.901M45.818 33.366 47.318 33.366 46.638 29.566 46.581 29.566Z"/><path d="M67.142 30.34 69.207 30.34 69.235 31.217 69.263 31.217C69.687 30.51 70.479 30.17 71.299 30.17L71.299 32.32C71.073 32.235 70.819 32.15 70.422 32.15 69.885 32.15 69.517 32.348 69.262 32.65L69.262 36.89 67.142 36.89M56.365 32.196 56.365 36.9 54.272 36.9 54.272 32.403C54.272 32.035 54.159 31.809 53.772 31.809 53.546 31.809 53.235 31.979 53.065 32.205L53.065 36.9 50.972 36.9 50.972 30.34 53.037 30.34 53.037 31.02 53.065 31.02C53.518 30.596 54.168 30.2 54.96 30.2 55.5309 30.1809 56.0474 30.5367 56.233 31.077L56.261 31.077C56.629 30.681 57.279 30.2 58.156 30.2 59.033 30.2 59.626 30.794 59.626 31.7L59.626 36.933 57.58 36.933 57.58 32.408C57.58 32.04 57.467 31.814 57.08 31.814 56.825 31.814 56.514 32.04 56.373 32.21M99.8 26.38 102.26 27.427C99.6818 28.4733 97.1857 29.7118 94.793 31.132L92.333 29.944C94.737 28.586 97.226 27.37 99.8 26.38M96.716 25.305C94.039 26.1493 91.4526 27.2577 88.995 28.614L91.315 29.519C93.691 28.133 96.208 26.945 98.81 26.012L96.717 25.305"/></g><path d="M105.438 26.295C103.316 25.2793 101.123 24.419 98.876 23.721L96.528 24.456C98.848 25.136 101.11 26.012 103.288 27.058L105.438 26.294M108.86 25.248C106.71 24.315 104.476 23.523 102.185 22.9L100.035 23.4C102.298 24.05 104.505 24.9 106.635 25.9L108.869 25.25M114.404 27.115C108.974 28.915 103.911 31.527 99.329 34.808 100.475 35.5165 101.597 36.2616 102.695 37.042 107.022 33.62 111.831 30.735 117.007 28.585 116.13 28.048 115.282 27.567 114.405 27.115M110.67 25.333C105.042 26.833 99.752 29.236 94.972 32.403 96.047 32.94 97.092 33.506 98.14 34.1 102.859 30.8409 108.061 28.3438 113.555 26.7 112.593 26.22 111.632 25.767 110.67 25.342" fill="#E2173E"/></svg>