<svg viewBox="0 0 652 652" xmlns="http://www.w3.org/2000/svg" xmlns:xlink="http://www.w3.org/1999/xlink" id="layer" overflow="hidden"><g><g><path d="M26.8 287.8 57.7 287.8C72.4 287.8 79.2 295.6 79.2 307.4 79.2 315.7 75.6 323.2 66.9 325L66.9 325.2C77.2 326.2 81.4 335 81.4 343.1 81.4 356.7 74.8 366.3 57.7 366.3L26.8 366.3 26.8 287.8ZM47.3 318.6 52.3 318.6C56.5 318.6 58.8 314.9 58.8 310.7 58.8 306.3 56.5 302.6 52.3 302.6L47.3 302.6 47.3 318.6ZM47.3 351.6 53 351.6C56.7 351.6 60.2 348.3 60.2 341.9 60.2 335.8 56.7 332.5 53 332.5L47.3 332.5 47.3 351.6Z" fill="#1A1A18"/><path d="M115.3 286.3C136.2 286.3 143.4 297.7 143.4 327.1 143.4 356.5 136.3 367.9 115.3 367.9 94.4 367.9 87.3 356.5 87.3 327.1 87.3 297.7 94.4 286.3 115.3 286.3M115.3 354C121.6 354 122.3 348.3 122.3 327 122.3 305.8 121.6 300.1 115.3 300.1 109 300.1 108.4 305.8 108.4 327 108.4 348.3 109.1 354 115.3 354" fill="#1A1A18"/><path d="M151.1 287.8 180.3 287.8 188.6 334.3 188.8 334.3 197.1 287.8 226.3 287.8 226.3 366.3 207.2 366.3 207.2 307.8 207 307.8 196.1 366.3 181.3 366.3 170.5 307.8 170.2 307.8 170.2 366.3 151.1 366.3Z" fill="#1A1A18"/><path d="M235.3 287.8 266.2 287.8C280.8 287.8 287.7 295.6 287.7 307.4 287.7 315.7 284.1 323.2 275.4 325L275.4 325.2C285.7 326.2 290 335 290 343.1 290 356.7 283.4 366.3 266.3 366.3L235.4 366.3 235.4 287.8ZM255.8 318.6 260.8 318.6C265 318.6 267.3 314.9 267.3 310.7 267.3 306.3 265 302.6 260.8 302.6L255.8 302.6 255.8 318.6ZM255.8 351.6 261.5 351.6C265.2 351.6 268.8 348.3 268.8 341.9 268.8 335.8 265.3 332.5 261.5 332.5L255.8 332.5 255.8 351.6Z" fill="#1A1A18"/><path d="M310.2 287.8 335.9 287.8 355 366.3 333.2 366.3 331.1 352.5 314.8 352.5 312.7 366.3 291 366.3 310.2 287.8ZM323.1 303.9 322.9 303.9 317.3 337.2 328.8 337.2 323.1 303.9Z" fill="#1A1A18"/><path d="M360.6 287.8 392.6 287.8C408.2 287.8 414.2 296.6 414.2 308.7 414.2 319.1 410.1 326 400.8 327.4L400.8 327.6C410.7 328.5 413.6 334.7 413.6 345.2L413.6 351.9C413.6 356 413.6 361.2 414.6 362.8 415.2 363.7 415.6 364.6 416.9 365.2L416.9 366.3 395.1 366.3C393.1 362.1 393.1 354.6 393.1 351.4L393.1 346.1C393.1 337.2 391.3 334.9 386.4 334.9L381 334.9 381 366.4 360.5 366.4 360.5 287.8ZM381.1 321 385.2 321C391 321 393.8 317.3 393.8 311.6 393.8 305.2 391.3 302.5 385.1 302.5L381.2 302.5 381.2 321Z" fill="#1A1A18"/><path d="M423.1 287.8 452.8 287.8C476.5 287.8 477.7 306.5 477.7 327.1 477.7 347.7 476.5 366.4 452.8 366.4L423.1 366.4 423.1 287.8ZM443.6 351.6 447.7 351.6C455.6 351.6 456.6 348.3 456.6 327.1 456.6 305.9 455.6 302.6 447.7 302.6L443.6 302.6 443.6 351.6Z" fill="#1A1A18"/><rect x="485.9" y="287.8" width="20.4" height="78.5" fill="#1A1A18"/><path d="M515.6 287.8 562.1 287.8 562.1 304.5 536 304.5 536 317.9 560.4 317.9 560.4 334 536 334 536 349.6 563.1 349.6 563.1 366.3 515.6 366.3Z" fill="#1A1A18"/><path d="M570.5 287.8 602.5 287.8C618.1 287.8 624 296.6 624 308.7 624 319.1 620 326 610.6 327.4L610.6 327.6C620.5 328.5 623.5 334.7 623.5 345.2L623.5 351.9C623.5 356 623.5 361.2 624.5 362.8 625 363.7 625.5 364.6 626.8 365.2L626.8 366.3 605 366.3C603 362.1 603 354.6 603 351.4L603 346.1C603 337.2 601.2 334.9 596.3 334.9L591 334.9 591 366.4 570.5 366.4 570.5 287.8ZM591 321 595.1 321C601 321 603.7 317.3 603.7 311.6 603.7 305.2 601.2 302.5 595 302.5L591 302.5 591 321Z" fill="#1A1A18"/></g></g></svg>