<svg viewBox="0 0 652 652" xmlns="http://www.w3.org/2000/svg" xmlns:xlink="http://www.w3.org/1999/xlink" id="layer" overflow="hidden"><rect x="61.3" y="71.6" width="550.7" height="500" fill="#A80232"/><path d="M87 421.4 87 475.6C174 426.6 338.9 353.5 588.1 333.1L588.1 321.4C404.9 331.5 231.9 365.5 87 421.4" fill="#FCB826"/><path d="M87 495.6 87 532.8C211 441.1 392.7 378 588 357.1L588 345.8C395 363.2 225.4 415.2 87 495.6" fill="#FFFFFF"/><path d="M364.2 197.7C359 197.7 355.8 197.3 354.2 197L354.2 160.7C354.2 154 354.5 147.8 355.1 143.5 357.1 142.8 362.7 142 366.8 142 386.6 142 395.4 150.4 395.4 168.6 395.3 194 376.2 197.6 364.2 197.7M400.2 246C400.2 270.9 386.3 281.1 365.2 281.1 360.9 281.1 356.7 280.6 354.1 279.8L354.1 209.7 363.3 209.7C389.9 209.7 400.2 223.1 400.2 246M391.8 201.5C410.6 196.2 426.6 182.8 426.6 162.4 426.6 142.8 413.8 129.7 387.7 129.7 375.2 129.7 359.5 131 348.2 131 337.1 131 325.2 130.9 311.7 130.1L310.8 130 310.8 130.9 310.8 139.1 311.6 139.2C323 140.1 323.8 142.3 323.8 160.5L323.8 268.5C323.8 278.1 322.5 282.8 313.6 283.6L311 283.8 311 292.7C319.6 292.2 335.6 291.8 342.4 291.8 349.4 291.8 354.7 292.2 363.5 292.6 415.7 294.9 432.7 265.3 432.7 241.5 432.7 213.1 411.8 205.9 391.8 201.9L391.8 201.5Z" fill="#FCB826"/><path d="M228.4 270.7C218 277.1 206 279.8 192.3 279.8 155.4 279.8 137.1 251.5 137.1 206.5 137.1 167 154.7 140.9 188.3 140.9 199.8 140.9 209 145 215.2 150.7 216.2 154.4 217.5 173.7 217.5 173.7L226.9 173.8 226.9 173.1C227 164.8 229.3 145.3 231.1 135.6L231.2 134.8 230.5 134.7C217.3 131.2 203.9 128.3 185.9 128.3 145.3 128.3 103.9 152.8 103.9 209.4 103.9 268.8 140.3 294.5 184.1 294.5 196.1 294.5 212.1 292.7 224.9 285.7L225.1 285.6 231.3 273.8 228.8 270.4 228.4 270.7Z" fill="#FCB826"/><path d="M567.6 270.7C557.2 277.1 545.2 279.8 531.5 279.8 494.6 279.8 476.3 251.5 476.3 206.5 476.3 167 493.9 140.9 527.5 140.9 539 140.9 548.3 145 554.4 150.7 555.4 154.4 556.7 173.7 556.7 173.7L566.1 173.8 566.1 173.1C566.2 164.8 568.5 145.3 570.3 135.6L570.4 134.8 569.7 134.7C556.5 131.2 543.1 128.3 525.1 128.3 484.5 128.3 443.1 152.8 443.1 209.4 443.1 268.8 479.4 294.5 523.3 294.5 535.3 294.5 551.2 292.7 564.1 285.7L564.3 285.6 570.5 273.8 568 270.4 567.6 270.7Z" fill="#FCB826"/><path d="M270.9 130.9C261.4 130.9 250.8 130.8 241.7 130L241 130 241 139 241.6 139.1C253.4 139.8 255 141.8 255 162.2L255 264.7C255 280.4 254.2 282.8 242.1 283.6L241.4 283.7 241.4 292.7 242.1 292.6C251.2 291.8 260.9 291.7 270.3 291.7 279.6 291.7 288.5 291.8 298.3 292.6L299.1 292.7 299.1 283.7 298.5 283.6C286.5 282.8 285.8 280.4 285.8 264.7L285.8 162.2C285.8 141.4 286.6 139.8 298.5 139.1L299.1 139 299.1 130 298.4 130.1C288.6 130.8 280.2 130.9 270.9 130.9" fill="#FCB826"/></svg>