<svg width="74" height="24" viewBox="0 0 74 24" xmlns="http://www.w3.org/2000/svg" xmlns:xlink="http://www.w3.org/1999/xlink" overflow="hidden"><path d="M9.24 8.19 9.24 10.65 15.12 10.65C14.94 12.03 14.48 13.04 13.78 13.75 12.92 14.61 11.58 15.55 9.24 15.55 5.62 15.55 2.79 12.63 2.79 9.01 2.79 5.39 5.62 2.47 9.24 2.47 11.19 2.47 12.62 3.24 13.67 4.23L15.4 2.5C13.94 1.08 11.98 0 9.24 0 4.28 0 0.11 4.04 0.11 9 0.11 13.96 4.28 18 9.24 18 11.92 18 13.94 17.12 15.52 15.48 17.14 13.86 17.65 11.57 17.65 9.73 17.65 9.16 17.61 8.63 17.52 8.19L9.24 8.19Z" fill="#4285F4"/><path d="M25 6.19C21.79 6.19 19.17 8.63 19.17 12 19.17 15.34 21.79 17.81 25 17.81 28.21 17.81 30.83 15.35 30.83 12 30.83 8.63 28.21 6.19 25 6.19ZM25 15.52C23.24 15.52 21.72 14.07 21.72 12 21.72 9.91 23.24 8.48 25 8.48 26.76 8.48 28.28 9.91 28.28 12 28.28 14.07 26.76 15.52 25 15.52Z" fill="#EA4335"/><path d="M53.58 7.49 53.49 7.49C52.92 6.81 51.82 6.19 50.43 6.19 47.53 6.19 45 8.72 45 12 45 15.26 47.53 17.81 50.43 17.81 51.82 17.81 52.92 17.19 53.49 16.49L53.58 16.49 53.58 17.3C53.58 19.52 52.39 20.71 50.48 20.71 48.92 20.71 47.95 19.59 47.55 18.64L45.33 19.56C45.97 21.1 47.66 22.99 50.48 22.99 53.47 22.99 56 21.23 56 16.94L56 6.49 53.58 6.49 53.58 7.49ZM50.65 15.52C48.89 15.52 47.55 14.02 47.55 12 47.55 9.95 48.89 8.48 50.65 8.48 52.39 8.48 53.75 9.98 53.75 12.02 53.76 14.05 52.39 15.52 50.65 15.52Z" fill="#4285F4"/><path d="M38 6.19C34.79 6.19 32.17 8.63 32.17 12 32.17 15.34 34.79 17.81 38 17.81 41.21 17.81 43.83 15.35 43.83 12 43.83 8.63 41.21 6.19 38 6.19ZM38 15.52C36.24 15.52 34.72 14.07 34.72 12 34.72 9.91 36.24 8.48 38 8.48 39.76 8.48 41.28 9.91 41.28 12 41.28 14.07 39.76 15.52 38 15.52Z" fill="#FBBC05"/><path d="M58 0.24 60.51 0.24 60.51 17.81 58 17.81Z" fill="#34A853"/><path d="M68.26 15.52C66.96 15.52 66.04 14.93 65.44 13.76L73.21 10.55 72.95 9.89C72.47 8.59 70.99 6.19 67.98 6.19 64.99 6.19 62.5 8.54 62.5 12 62.5 15.26 64.96 17.81 68.26 17.81 70.92 17.81 72.46 16.18 73.1 15.24L71.12 13.92C70.46 14.88 69.56 15.52 68.26 15.52ZM68.08 8.37C69.11 8.37 69.99 8.9 70.28 9.65L65.03 11.82C65.03 9.38 66.76 8.37 68.08 8.37Z" fill="#EA4335"/></svg>