<svg width="512" height="200" viewBox="0 0 512 200" xmlns="http://www.w3.org/2000/svg" xmlns:xlink="http://www.w3.org/1999/xlink" overflow="hidden"><g fill="#264970"><g transform="translate(157.363 47.8931)"><path d="M311.546 3.49163C311.075 1.99555 309.688 0.979528 308.12 0.979528L274.601 0.979528C273.033 0.979528 271.647 1.99555 271.176 3.49163L228.887 137.621C228.542 138.712 228.739 139.903 229.415 140.826 230.091 141.75 231.167 142.294 232.312 142.294L255.388 142.294C256.98 142.294 258.382 141.247 258.833 139.719L287.955 41.0718C287.955 41.0718 288.717 38.6075 291.354 38.6075 294.035 38.6075 294.689 41.1687 294.689 41.171L308.2 87.9511 289.637 87.9511C288.028 87.9511 286.615 89.0207 286.18 90.5693L280.971 109.088C280.666 110.171 280.886 111.333 281.566 112.228 282.245 113.126 283.304 113.651 284.429 113.651L315.755 113.651 323.893 139.769C324.361 141.271 325.751 142.294 327.323 142.294L350.41 142.294C351.555 142.294 352.63 141.75 353.306 140.826 353.984 139.903 354.18 138.712 353.835 137.621L311.546 3.49163"/><path d="M153.918 27.0949 181.851 27.0949C196.297 27.0949 199.197 32.7794 199.197 41.9521L199.197 55.6506C199.197 67.0674 194.821 70.9194 181.851 70.9194L153.918 70.9194 153.918 27.0949 153.918 27.0949ZM239.207 136.364 208.513 92.0882C221.729 86.6055 228.427 75.1158 228.427 57.9335L228.427 39.8767C228.427 12.9745 214.382 0.979528 182.888 0.979528L128.281 0.979528C126.298 0.979528 124.689 2.58737 124.689 4.57037L124.689 138.701C124.689 140.686 126.298 142.294 128.281 142.294L150.326 142.294C152.309 142.294 153.918 140.686 153.918 138.701L153.918 96.6346 176.479 96.6346 207.163 140.752C207.834 141.717 208.936 142.294 210.112 142.294L236.456 142.294 236.479 142.294C238.463 142.294 240.071 140.686 240.071 138.701 240.071 137.808 239.746 136.991 239.207 136.364L239.207 136.364Z"/><path d="M97.9049 0.979528 75.8592 0.979528C73.8762 0.979528 72.2673 2.58737 72.2673 4.57037L72.2673 138.701C72.2673 140.686 73.8762 142.294 75.8592 142.294L97.9049 142.294C99.889 142.294 101.498 140.686 101.498 138.701L101.498 4.57037C101.498 2.58737 99.889 0.979528 97.9049 0.979528"/><path d="M46.2761 0.979528 23.9625 0.979528C22.073 0.979528 20.5325 2.51211 20.5325 4.40046L20.5325 109.357C20.5325 122.547 10.4817 126.882 3.67979 127.229 2.76298 127.274 1.69564 127.852 1.10952 128.708 0.521123 129.568 0.356918 130.647 0.662521 131.641L6.08812 149.288C6.53057 150.733 8.08709 151.661 10.6197 151.661 31.9698 151.661 49.6971 134.899 49.6971 112.43L49.6971 4.4016C49.6971 3.49392 49.3379 2.62272 48.6947 1.98072 48.0539 1.33873 47.1838 0.979528 46.2761 0.979528"/></g><g><path d="M30.8466 12.2812C23.991 12.2812 18.44 17.8254 18.44 24.698 18.44 31.5536 23.991 37.1171 30.8466 37.1171 37.7078 37.1171 43.2532 31.5536 43.2532 24.698 43.2532 17.8254 37.7078 12.2812 30.8466 12.2812"/><path d="M112.356 12.2812C105.497 12.2812 99.9529 17.8254 99.9529 24.698 99.9529 31.5536 105.497 37.1171 112.356 37.1171 119.196 37.1171 124.76 31.5536 124.76 24.698 124.76 17.8254 119.196 12.2903 112.356 12.2812"/><path d="M71.6013 0.95102C64.7458 0.95102 59.1947 6.49408 59.1947 13.369 59.1947 20.2246 64.7458 25.7893 71.6013 25.7893 78.4614 25.7893 84.0056 20.2246 84.0056 13.369 84.0056 6.49408 78.4614 0.95102 71.6013 0.95102"/><path d="M141.686 46.8816C140.995 46.3571 140.166 46.0846 139.324 46.0846 138.857 46.0846 138.385 46.1701 137.938 46.3423 129.537 49.5545 121.006 51.9937 113.22 53.8079 111.632 54.1785 110.349 55.3576 109.818 56.7738 104.145 72.3129 89.6593 87.1096 74.4612 102.608 73.8512 103.187 72.9971 103.951 71.6059 103.951 70.2181 103.951 69.372 103.211 68.7505 102.608 53.5547 87.1096 39.0694 72.3642 33.394 56.824 32.8615 55.4089 31.5787 54.2298 29.9936 53.8581 22.203 52.0438 13.6507 49.5294 5.26026 46.3172 4.81098 46.1461 4.33889 46.0606 3.87022 46.0606 3.02867 46.0606 2.21449 46.3252 1.52574 46.8508 0.449283 47.6719-0.10947 49.0038 0.018245 50.2832 1.30452 63.2052 6.41083 75.8376 15.6257 89.0755 24.2875 101.521 35.5857 113.041 46.5088 124.181 66.6353 144.71 85.6477 164.099 87.316 186.582 87.4665 188.61 89.1564 190.182 91.1942 190.182L114.84 190.182C115.905 190.182 116.922 189.744 117.657 188.972 118.389 188.202 118.777 187.166 118.724 186.101 117.98 171.07 112.323 156.016 101.43 140.086 99.1467 136.746 96.7019 133.496 94.1453 130.316 93.1065 129.021 93.5409 127.412 94.3357 126.6 95.1214 125.796 95.9105 124.994 96.7041 124.181 107.628 113.04 118.924 101.521 127.588 89.0755 136.802 75.8364 141.906 63.2782 143.194 50.3584 143.322 49.0596 142.733 47.6821 141.686 46.8816"/><path d="M46.2317 141.67C45.6729 141.085 44.8507 140.488 43.471 140.488 41.7058 140.488 40.659 141.708 40.2633 142.312 30.3175 157.447 25.1804 171.732 24.47 186.087 24.4186 187.146 24.8086 188.197 25.5407 188.97 26.2762 189.739 27.307 190.182 28.3698 190.182L51.9754 190.182C54.0063 190.182 55.7168 188.593 55.8662 186.568 56.3804 179.649 58.5345 172.714 62.456 165.426 63.8153 162.905 62.7593 160.537 61.9771 159.524 58.0863 154.464 53.321 149.067 46.2317 141.67"/><path d="M71.6275 58.4661C79.0384 58.4661 83.3363 58.0213 84.846 58.0213 86.6751 58.0213 88.4232 59.5197 88.4232 61.6179 88.4232 62.2302 88.2784 62.6681 88.1347 63.0547 87.1517 65.682 82.6726 75.1351 74.3335 83.2439 73.3985 84.1539 72.338 84.3238 71.6082 84.3238L71.599 84.3238C70.8704 84.3238 69.811 84.1539 68.876 83.2439 60.5369 75.1351 56.0566 65.682 55.0759 63.0547 54.9311 62.6681 54.7863 62.2302 54.7863 61.6179 54.7863 59.5197 56.5367 58.0213 58.3657 58.0213 59.8755 58.0213 64.171 58.4661 71.5785 58.4661L71.6275 58.4661"/></g></g></svg>