<svg width="2500" height="2500" viewBox="0 0 192.756 192.756" xmlns="http://www.w3.org/2000/svg" xmlns:xlink="http://www.w3.org/1999/xlink" overflow="hidden"><g fill-rule="evenodd" clip-rule="evenodd"><path d="M0 0 192.756 0 192.756 192.756 0 192.756 0 0Z" fill="#FFFFFF"/><path d="M83.62 88.369 83.62 89.492 82.919 89.492C80.29 89.492 79.554 90.298 79.554 93.138L79.554 107.194C79.554 110.034 80.29 110.84 82.919 110.84L83.62 110.84 83.62 111.962 70.65 111.962 70.65 110.84 71.352 110.84C73.98 110.84 74.716 110.034 74.716 107.194L74.716 91.945 74.647 91.945 65.252 111.961 64.165 111.961 54.737 92.296 54.668 92.296 54.668 107.193C54.668 110.033 55.404 110.839 58.033 110.839L58.525 110.839 58.525 111.961 49.095 111.961 49.095 110.839 49.587 110.839C52.18 110.839 52.917 110.033 52.917 107.193L52.917 93.138C52.917 90.299 52.18 89.492 49.587 89.492L49.06 89.492 49.06 88.369 58.173 88.369 66.341 105.511 74.437 88.369 83.62 88.369ZM101.078 109.542C100.693 110.173 99.992 110.98 99.291 111.54 98.449 112.241 97.432 112.626 96.452 112.626 94.874 112.626 93.787 111.575 93.787 110.068L93.787 109.682C92.876 110.56 91.475 111.503 90.178 112.135 89.477 112.487 88.846 112.625 88.18 112.625 85.761 112.625 84.219 110.874 84.219 108.174 84.219 107.018 84.709 105.861 85.48 105.089 86.498 104.108 87.829 103.406 90.353 102.53L93.508 101.478 93.787 101.373 93.787 99.165C93.787 97.307 93.121 96.605 91.3 96.605 89.757 96.605 88.846 97.236 88.846 98.358 88.846 98.394 88.846 98.568 88.881 98.85L88.881 99.025C88.881 100.216 88.18 100.953 87.058 100.953 85.971 100.953 85.235 100.217 85.235 99.131 85.235 96.818 87.899 95.205 91.649 95.205 93.823 95.205 95.61 95.661 96.733 96.537 97.572 97.237 97.959 98.079 97.994 99.516L97.994 107.825C97.994 109.016 98.029 109.157 98.098 109.437 98.135 109.577 98.205 109.717 98.344 109.823 98.449 109.928 98.59 109.964 98.766 109.964 99.256 109.964 99.887 109.506 100.518 108.736L101.078 109.542ZM93.578 102.952C90.493 104.004 90.703 103.898 89.687 104.528 89.2187 104.821 88.8228 105.217 88.529 105.685 88.3199 106.073 88.2119 106.507 88.215 106.947 88.215 108.42 89.231 109.612 90.457 109.612 91.333 109.612 92.875 108.805 93.787 107.929L93.787 102.881 93.578 102.952ZM107.908 97.624C109.73 96.012 111.623 95.206 113.48 95.206 115.548 95.206 117.337 96.293 117.933 97.939 118.283 98.886 118.388 100.007 118.388 102.357L118.388 108.316C118.388 110.314 118.808 110.839 120.351 110.839L120.667 110.839 120.667 111.961 112.009 111.961 112.009 110.839 112.185 110.839C113.761 110.839 114.183 110.314 114.183 108.316L114.183 102.637C114.183 100.183 114.078 99.587 113.656 98.921 113.227 98.3235 112.535 97.9707 111.799 97.974 110.502 97.974 109.17 98.501 107.908 99.517L107.908 108.316C107.908 110.314 108.33 110.839 109.871 110.839L110.432 110.839 110.432 111.961 101.494 111.961 101.494 110.839 101.705 110.839C103.246 110.839 103.666 110.314 103.666 108.316L103.666 101.128C103.666 99.622 103.596 98.956 103.387 98.431 103.141 97.904 102.686 97.624 102.09 97.624 101.914 97.624 101.738 97.624 101.459 97.694L101.459 96.431 106.436 95.205 107.909 95.205 107.909 97.624 107.908 97.624ZM137.283 106.845 137.318 108.316C137.353 109.472 137.705 109.964 138.547 109.964 138.756 109.964 139.211 109.859 139.598 109.753L139.598 110.944 134.444 112.626 133.044 112.626 133.044 110.173C131.255 111.75 129.257 112.626 127.435 112.626 125.193 112.626 123.298 111.189 122.843 109.191 122.599 108.174 122.562 107.719 122.562 105.195L122.562 99.516C122.562 97.694 122.142 97.028 120.88 97.028L120.88 95.907 126.804 95.907 126.804 105.79C126.804 108.035 126.98 108.667 127.681 109.262 128.103 109.648 128.697 109.859 129.363 109.859 130.17 109.859 130.765 109.683 131.783 109.123 132.449 108.773 132.623 108.668 133.045 108.316L133.045 99.517C133.045 97.554 132.623 97.029 131.082 97.029L130.346 97.029 130.346 95.908 137.285 95.908 137.285 106.845 137.283 106.845ZM146.225 108.315C146.225 110.244 146.645 110.838 148.082 110.838L148.187 110.838 148.187 111.96 139.916 111.96 139.916 110.838 140.018 110.838C141.596 110.838 141.981 110.313 141.981 108.315L141.981 93.769C141.981 91.946 141.948 91.315 141.772 90.826 141.596 90.299 141.073 89.948 140.475 89.948L140.159 89.948C140.126 89.948 140.055 89.948 139.95 89.983L139.739 88.827 144.788 87.951 146.226 87.951 146.226 108.315 146.225 108.315ZM148.82 111.961 148.82 110.839 149.379 110.839C150.922 110.839 151.342 110.314 151.342 108.316L151.342 100.989C151.342 99.447 151.274 98.781 151.063 98.291 150.817 97.73 150.36 97.449 149.766 97.449 149.487 97.449 149.309 97.484 149.03 97.59L148.751 96.433 154.112 95.207 155.583 95.207 155.583 108.317C155.583 110.315 156.007 110.84 157.548 110.84L157.898 110.84 157.898 111.962 148.82 111.962 148.82 111.961ZM153.586 92.997C152.199 93.0031 151.069 91.8834 151.063 90.496 151.063 90.4887 151.063 90.4813 151.063 90.474 151.063 89.072 152.184 87.951 153.586 87.951 154.988 87.951 156.109 89.072 156.109 90.474 156.103 91.8649 154.977 92.991 153.586 92.997ZM158.74 111.961 158.74 110.839 159.439 110.839C160.984 110.839 161.404 110.314 161.404 108.316L161.404 97.903 158.74 97.903 158.74 95.907 161.404 95.907 161.404 95.381C161.404 91.069 164.699 87.95 169.22 87.95 171.499 87.95 173.005 88.966 173.005 90.543 173.005 91.699 172.198 92.505 170.937 92.505 170.273 92.505 169.677 92.119 169.117 91.278L168.765 90.788C168.343 90.121 167.958 89.876 167.363 89.876 166.556 89.876 165.961 90.437 165.785 91.314 165.646 91.84 165.611 92.365 165.611 93.556L165.611 95.907 168.73 95.907 168.73 97.903 165.611 97.903 165.611 108.315C165.611 110.313 166.029 110.838 167.609 110.838L168.73 110.838 168.73 111.96 158.74 111.96 158.74 111.961Z" fill="#186944"/><path d="M184.252 106.493C183.9 107.825 182.953 109.403 181.693 110.63 180.425 111.914 178.694 112.633 176.89 112.626 172.579 112.626 169.531 109.017 169.531 103.863 169.531 98.675 172.615 95.205 177.209 95.205 181.342 95.205 184.041 97.973 184.041 102.18L184.041 102.566 173.352 102.566C173.596 106.317 175.768 108.91 178.678 108.91 180.606 108.91 182.393 107.789 183.412 106.003L184.252 106.493ZM179.449 100.778 179.449 100.497C179.449 98.22 178.363 96.747 176.715 96.747 174.824 96.747 173.527 98.29 173.317 100.778L179.449 100.778ZM8.504 111.96 40.334 111.96 40.334 80.13 8.504 80.13 8.504 111.96ZM21.055 105.573 16.295 110.2 16.295 91.417 21.055 86.79 21.055 105.573ZM28.875 105.565 24.115 110.192 24.115 91.407 28.875 86.782 28.875 105.565ZM36.735 105.509 31.975 110.136 31.975 91.351 36.735 86.726 36.735 105.509Z" fill="#186944"/></g></svg>