<svg width="48" height="48" viewBox="0 0 48 48" xmlns="http://www.w3.org/2000/svg" xmlns:xlink="http://www.w3.org/1999/xlink" overflow="hidden"><path d="M5.271 10.155C10.167 8.172 18.245 7.914 21.754 8.046L24 10.93 26.247 8.046C29.756 7.914 37.834 8.171 42.729 10.155 42.053 11.439 39.112 13.265 37.496 13.671 37.404 11.148 33.838 10.622 30.417 10.622L23.999 45.04 17.582 10.621C14.157 10.621 10.591 11.147 10.499 13.67 8.885 13.265 5.946 11.439 5.271 10.155L5.271 10.155Z" fill="#B71C1C" fill-rule="evenodd" clip-rule="evenodd"/><path d="M3 6.734 4.253 8.573C9.006 6.905 14.647 6.103 20.6 5.923 22.853 5.854 25.147 5.854 27.398 5.923 33.351 6.102 38.993 6.904 43.746 8.573L45 6.734C39.387 4.832 33.423 4.198 27.468 4.044 25.161 3.985 22.838 3.985 20.535 4.044 14.575 4.198 8.614 4.832 3 6.734L3 6.734Z" fill="#B71C1C" fill-rule="evenodd" clip-rule="evenodd"/></svg>