<svg viewBox="0 0 652 652" xmlns="http://www.w3.org/2000/svg" xmlns:xlink="http://www.w3.org/1999/xlink" id="layer" overflow="hidden"><path d="M144.2 334.9 141.6 334.9 141.6 323.7 137.4 323.7 137.4 321.4 148.2 321.4 148.6 323.7 144.2 323.7Z" fill="#00053E"/><path d="M164.6 334.9 162 334.9 162 329.1 156.2 329.1 156.2 334.9 153.6 334.9 153.6 321.4 156.2 321.4 156.2 326.6 162 326.6 162 321.4 164.6 321.4Z" fill="#00053E"/><path d="M180.9 334.9 172.2 334.9 172.2 321.4 180.7 321.4 180.7 323.7 174.8 323.7 174.8 326.7 179.5 326.7 179.9 329 174.8 329 174.8 332.5 180.9 332.5Z" fill="#00053E"/><g><path d="M201.2 335.1C197.8 335.1 195.7 333 195.7 329.6L195.7 321.4 198.3 321.4 198.3 329.5C198.3 331.7 199.3 332.9 201.2 332.9 203.1 332.9 204.1 331.8 204.1 329.6L204.1 321.4 206.7 321.4 206.7 329.5C206.8 333 204.7 335.1 201.2 335.1" fill="#00053E"/><path d="M225 334.9 222.8 334.9 216.4 325.4 216.4 334.9 213.9 334.9 213.9 321.4 216.5 321.4 222.6 330.4 222.6 321.4 225 321.4Z" fill="#00053E"/><rect x="232.5" y="321.4" width="2.6" height="13.5" fill="#00053E"/><path d="M248 335.1 245.6 335.1 240.4 321.7 243 321.1 246.9 331.7 250.7 321.4 253.3 321.4Z" fill="#00053E"/><path d="M267 334.9 258.3 334.9 258.3 321.4 266.8 321.4 266.8 323.7 260.9 323.7 260.9 326.7 265.6 326.7 266 329 260.9 329 260.9 332.5 267 332.5Z" fill="#00053E"/><path d="M281.3 335 277.5 329.7 276.3 329.7 276.3 334.8 273.7 334.8 273.7 321.3 277.9 321.3C281.1 321.3 283 322.9 283 325.5 283 327.3 282.1 328.7 280.3 329.3L284 334.3 281.3 335ZM276.2 327.7 277.8 327.7C279.4 327.7 280.3 327 280.3 325.6 280.3 324 278.9 323.7 277.8 323.7L276.2 323.7 276.2 327.7Z" fill="#00053E"/><path d="M293.7 335.1C292.3 335.1 290.6 334.7 289.1 334.1L289 334.1 289.4 331.7 289.6 331.8C291 332.5 292.6 333 293.8 333 295.3 333 296.3 332.3 296.3 331.3 296.3 330.3 295.7 329.9 293.8 329.3 291 328.3 289.5 327.4 289.5 325.3 289.5 323 291.4 321.4 294.1 321.4 295.5 321.4 296.8 321.7 298 322.2L298.1 322.2 297.7 324.7 297.5 324.6C296.2 323.9 295.1 323.6 294 323.6 292.8 323.6 291.9 324.2 291.9 325 291.9 325.9 292.5 326.2 294.6 327 297.3 327.9 298.7 328.8 298.7 331.1 298.6 333.4 296.6 335.1 293.7 335.1" fill="#00053E"/><rect x="305.2" y="321.4" width="2.6" height="13.5" fill="#00053E"/><path d="M319.7 334.9 317.1 334.9 317.1 323.7 312.9 323.7 312.9 321.4 323.7 321.4 324.1 323.7 319.7 323.7Z" fill="#00053E"/><path d="M333.3 334.9 330.7 334.9 330.7 329.7 325.8 321.7 328.5 321.1 332 327.3 335.4 321.4 338.3 321.4 333.3 329.6Z" fill="#00053E"/><path d="M355.2 335.1C352 335.1 348.7 332.7 348.7 328.1 348.7 323.5 352 321.1 355.2 321.1 358.4 321.1 361.7 323.5 361.7 328.1 361.7 332.7 358.4 335.1 355.2 335.1M355.2 323.4C352.9 323.4 351.4 325.3 351.4 328.1 351.4 330.9 353 332.9 355.2 332.9 357.5 332.9 359 331 359 328.2 359 325.4 357.4 323.4 355.2 323.4" fill="#00053E"/><path d="M370.4 334.9 367.8 334.9 367.8 321.4 376 321.4 376 323.7 370.4 323.7 370.4 326.9 374.8 326.9 375.2 329.2 370.4 329.2Z" fill="#00053E"/><path d="M394.8 334.9 390.4 334.9 390.4 321.4 394.8 321.4C397.6 321.4 399.3 322.7 399.3 324.9 399.3 326.2 398.7 327.2 397.6 327.7 399.1 328.3 399.9 329.3 399.9 330.8 399.9 333.4 398.1 334.9 394.8 334.9M392.8 332.7 394.8 332.7C396.6 332.7 397.4 332.1 397.4 330.9 397.4 329.6 396.5 328.9 394.8 328.9L392.8 328.9 392.8 332.7ZM392.8 326.8 394.5 326.8C396 326.8 396.8 326.2 396.8 325.1 396.8 324.5 396.6 323.6 394.6 323.6L392.8 323.6 392.8 326.8Z" fill="#00053E"/><path d="M414 335 410.2 329.7 409 329.7 409 334.8 406.4 334.8 406.4 321.3 410.6 321.3C413.8 321.3 415.7 322.9 415.7 325.5 415.7 327.3 414.8 328.7 413 329.3L416.7 334.3 414 335ZM408.9 327.7 410.5 327.7C412.1 327.7 413 327 413 325.6 413 324 411.6 323.7 410.5 323.7L408.9 323.7 408.9 327.7Z" fill="#00053E"/><rect x="422.5" y="321.4" width="2.6" height="13.5" fill="#00053E"/><path d="M437 334.9 434.4 334.9 434.4 323.7 430.2 323.7 430.2 321.4 441 321.4 441.4 323.7 437 323.7Z" fill="#00053E"/><rect x="446.2" y="321.4" width="2.6" height="13.5" fill="#00053E"/><path d="M459.8 335.1C458.4 335.1 456.7 334.7 455.2 334.1L455.1 334.1 455.5 331.7 455.7 331.8C457.1 332.5 458.7 333 459.9 333 461.4 333 462.3 332.3 462.3 331.3 462.3 330.3 461.7 329.9 459.8 329.3 457 328.3 455.5 327.4 455.5 325.3 455.5 323 457.4 321.4 460.1 321.4 461.5 321.4 462.8 321.7 464 322.2L464.1 322.2 463.7 324.7 463.5 324.6C462.2 323.9 461.1 323.6 460 323.6 458.8 323.6 457.9 324.2 457.9 325 457.9 325.9 458.5 326.2 460.6 327 463.2 327.9 464.7 328.8 464.7 331.1 464.7 333.4 462.7 335.1 459.8 335.1" fill="#00053E"/><path d="M481.6 334.9 478.9 334.9 478.9 329.1 473.1 329.1 473.1 334.9 470.5 334.9 470.5 321.4 473.1 321.4 473.1 326.6 478.9 326.6 478.9 321.4 481.6 321.4Z" fill="#00053E"/><path d="M501.8 335.1C497.9 335.1 495.3 332.3 495.3 328.1 495.3 323.9 497.9 321.1 501.8 321.1 503.3 321.1 504.6 321.4 505.7 322.1L505.8 322.2 505.4 324.7 505.2 324.6C504.1 323.8 503.1 323.4 501.9 323.4 499.5 323.4 498 325.2 498 328.2 498 331.1 499.5 333 501.9 333 503.1 333 504.3 332.6 505.4 331.8L505.6 331.7 506 334 505.9 334C504.8 334.7 503.3 335.1 501.8 335.1" fill="#00053E"/><path d="M517.4 335.1C514.2 335.1 510.9 332.7 510.9 328.1 510.9 323.5 514.2 321.1 517.4 321.1 520.6 321.1 523.9 323.5 523.9 328.1 523.8 332.7 520.6 335.1 517.4 335.1M517.4 323.4C515.1 323.4 513.6 325.3 513.6 328.1 513.6 330.9 515.2 332.9 517.4 332.9 519.7 332.9 521.2 331 521.2 328.2 521.2 325.4 519.6 323.4 517.4 323.4" fill="#00053E"/><path d="M537.6 334.9 529.6 334.9 529.6 321.4 532.2 321.4 532.2 332.6 537.2 332.6Z" fill="#00053E"/><path d="M547.8 335.1C544.4 335.1 542.3 333 542.3 329.6L542.3 321.4 544.9 321.4 544.9 329.5C544.9 331.7 545.9 332.9 547.8 332.9 549.7 332.9 550.7 331.8 550.7 329.6L550.7 321.4 553.3 321.4 553.3 329.5C553.4 333 551.3 335.1 547.8 335.1" fill="#00053E"/><path d="M569.1 334.9 566.5 334.9 562.9 324.7 562.2 334.9 559.8 334.9 560.8 321.4 564.4 321.4 567.9 331.7 571.5 321.4 575 321.4 576 334.9 573.4 334.9 572.7 324.7Z" fill="#00053E"/><path d="M587.6 334.9 583.2 334.9 583.2 321.4 587.6 321.4C590.4 321.4 592.1 322.7 592.1 324.9 592.1 326.2 591.5 327.2 590.4 327.7 591.9 328.3 592.7 329.3 592.7 330.8 592.7 333.4 590.9 334.9 587.6 334.9M585.6 332.7 587.6 332.7C589.4 332.7 590.2 332.1 590.2 330.9 590.2 329.6 589.3 328.9 587.6 328.9L585.6 328.9 585.6 332.7ZM585.6 326.8 587.3 326.8C588.8 326.8 589.6 326.2 589.6 325.1 589.6 324.5 589.4 323.6 587.4 323.6L585.6 323.6 585.6 326.8Z" fill="#00053E"/><rect x="599.3" y="321.4" width="2.6" height="13.5" fill="#00053E"/><path d="M617.8 335.1 616.5 331.5 610.8 331.5 609.6 334.8 607 334.8 612.3 321.1 615.1 321.1 620.4 334.4 617.8 335.1ZM611.7 329.2 615.6 329.2C615.4 328.5 614.4 325.9 613.6 323.9L611.7 329.2Z" fill="#00053E"/><path d="M142.1 301.3C139.7 301.3 138.2 299.8 138.2 297.5 138.2 294.4 140.6 292.8 146.2 292.3L146.2 292C146.2 290.7 145.5 290.1 144 290.1 142.7 290.1 141.3 290.4 139.6 291.2L139.5 291.3 139 288.4 139.1 288.4C140.5 287.9 142.2 287.3 144.4 287.3 148 287.3 149.7 288.7 149.7 291.9L149.7 301.1 146.7 301.1 146.4 299.5C145.1 300.7 143.8 301.3 142.1 301.3M146.2 294.4C142.2 294.9 141.7 296.1 141.7 297.1 141.7 298 142.2 298.5 143.2 298.5 144.3 298.5 145.3 298 146.2 297.1L146.2 294.4Z" fill="#00053E"/><path d="M161 306.1 161 287.5 164 287.5 164.3 289.2C165.5 287.9 166.8 287.3 168.3 287.3 170.8 287.3 173.4 289 173.4 294 173.4 299.4 170.2 301.3 167.5 301.3 166.4 301.3 165.4 301.1 164.5 300.8L164.5 305.7 161 306.1ZM164.6 297.7C165.3 298 165.9 298.2 167 298.2 168.8 298.2 169.9 296.6 169.9 294 169.9 291.7 169 290.3 167.5 290.3 166.5 290.3 165.6 290.9 164.6 292.1L164.6 297.7Z" fill="#00053E"/><path d="M181.6 301 178.1 301 178.1 281.5 181.6 280.9Z" fill="#00053E"/><path d="M190.2 301.3C187.8 301.3 186.3 299.8 186.3 297.5 186.3 294.4 188.7 292.8 194.3 292.3L194.3 292C194.3 290.7 193.6 290.1 192.1 290.1 190.8 290.1 189.4 290.4 187.7 291.2L187.6 291.3 187.1 288.4 187.2 288.4C188.6 287.9 190.3 287.3 192.5 287.3 196.1 287.3 197.8 288.7 197.8 291.9L197.8 301.1 194.8 301.1 194.5 299.5C193.3 300.7 191.9 301.3 190.2 301.3M194.3 294.4C190.3 294.9 189.8 296.1 189.8 297.1 189.8 298 190.3 298.5 191.3 298.5 192.4 298.5 193.4 298 194.3 297.1L194.3 294.4Z" fill="#00053E"/><path d="M208.9 301.2C205 301.2 202.5 298.5 202.5 294.3 202.5 290 205.1 287.2 209 287.2 210.6 287.2 212 287.6 213.2 288.3L213.3 288.3 212.8 291.5 212.6 291.4C211.5 290.6 210.4 290.2 209.2 290.2 207.3 290.2 206.1 291.7 206.1 294.1 206.1 296.6 207.4 298 209.5 298 210.7 298 211.7 297.6 212.9 296.8L213.1 296.7 213.6 299.8 213.5 299.8C212 300.8 210.6 301.2 208.9 301.2" fill="#00053E"/><path d="M223.9 301.3C219.7 301.3 217.3 298.7 217.3 294.3 217.3 290.1 219.8 287.3 223.5 287.3 227.2 287.3 229.4 289.9 229.4 294.2 229.4 294.4 229.4 294.5 229.4 294.7 229.4 294.8 229.4 294.9 229.4 295L229.4 295.1 220.9 295.1C221.1 297.4 222.3 298.6 224.3 298.6 225.8 298.6 227.2 298.1 228.8 297L229 296.9 229.4 299.7 229.3 299.7C227.7 300.7 225.9 301.3 223.9 301.3M220.9 292.7 225.9 292.7C225.7 290.7 224.8 289.7 223.4 289.7 222.1 289.7 221.1 290.8 220.9 292.7" fill="#00053E"/><path d="M244.7 301.3C240.9 301.3 238.4 298.5 238.4 294.3 238.4 290.1 241 287.3 244.8 287.3 248.6 287.3 251.2 290.1 251.2 294.3 251.1 298.4 248.6 301.3 244.7 301.3M244.7 290.2C242.9 290.2 241.8 291.7 241.8 294.3 241.8 296.8 242.9 298.4 244.7 298.4 246.6 298.4 247.7 296.9 247.7 294.3 247.7 291.7 246.5 290.2 244.7 290.2" fill="#00053E"/><path d="M260.2 301 256.7 301 256.7 290.4 254.8 290.4 254.8 287.5 256.7 287.5 256.7 285.3C256.7 282.5 258.3 281.1 261.4 281.1 262 281.1 262.5 281.2 262.8 281.2L262.9 281.2 263.4 284.1 263.2 284.1C263 284.1 262.5 284 261.8 284 260.7 284 260.2 284.5 260.2 285.6L260.2 287.4 262.7 287.4 263.1 290.3 260.1 290.3 260.1 301Z" fill="#00053E"/><path d="M293.3 301 289.8 301 289.8 292.2C289.8 291 289.3 290.4 288.3 290.4 287.4 290.4 286.5 290.9 285.5 292L285.5 301.1 282 301.1 282 292.3C282 291.1 281.5 290.5 280.5 290.5 279.6 290.5 278.7 291 277.7 292.1L277.7 301.2 274 301.2 274 287.7 277 287.7 277.3 289.4C278.4 288.4 279.8 287.4 281.6 287.4 283.3 287.4 284.5 288.1 285 289.5 286.4 288.1 287.9 287.4 289.4 287.4 291.9 287.4 293.3 288.9 293.3 291.5L293.3 301Z" fill="#00053E"/><path d="M302.7 301 299.2 301 299.2 287.5 302.7 287.5 302.7 301ZM300.9 285.5C299.7 285.5 298.8 284.6 298.8 283.5 298.8 282.3 299.7 281.5 300.9 281.5 302.1 281.5 303 282.4 303 283.5 303 284.6 302.1 285.5 300.9 285.5" fill="#00053E"/><path d="M320.2 301 316.7 301 316.7 292.2C316.7 291.4 316.4 290.4 315.1 290.4 314.2 290.4 313.2 290.9 312.2 292L312.2 301 308.7 301 308.7 287.5 311.7 287.5 312 289.2C313 288.2 314.5 287.2 316.3 287.2 318.8 287.2 320.2 288.7 320.2 291.3L320.2 301Z" fill="#00053E"/><path d="M330.2 301.3C327.7 301.3 325.1 299.6 325.1 294.6 325.1 289.2 328.2 287.3 331 287.3 332 287.3 333 287.4 334 287.7L334 281.4 337.5 280.8 337.5 301 334.5 301 334.2 299.3C333 300.6 331.7 301.3 330.2 301.3M331.5 290.2C329.7 290.2 328.6 291.8 328.6 294.4 328.6 296.7 329.5 298.1 331 298.1 332 298.1 332.9 297.6 333.9 296.4L333.9 290.8C333.2 290.4 332.5 290.2 331.5 290.2" fill="#00053E"/><path d="M54.3 310.1 57.9 336.3 69.8 316.5 64.8 338.3 77.6 326.1 70.9 342.3 81.6 334.3C76.6 347.8 72.3 355.4 54.4 361.5 36.4 355.4 32.1 347.8 27.2 334.3L37.9 342.3 31.2 326.1 44 338.3 39 316.5 50.9 336.3 54.3 310.1Z" fill="#00053E"/><path d="M35.5 301.3C30.1 301.3 26.8 298.4 26.8 293.5L26.8 281.8 31.3 281.8 31.3 293.3C31.3 296.1 32.8 297.7 35.5 297.7 38.3 297.7 39.8 296.2 39.8 293.4L39.8 281.8 44.3 281.8 44.3 293.4C44.3 298.3 41 301.3 35.5 301.3" fill="#00053E"/><path d="M52.5 289.5 54.1 289.5C56.3 289.5 57.5 288.7 57.5 287.2 57.5 285.7 56.4 285 54.3 285L52.5 285 52.5 289.5ZM52.5 297.8 54.4 297.8C56.2 297.8 58.2 297.4 58.2 295.2 58.2 293 56.1 292.5 54.3 292.5L52.4 292.5 52.4 297.8ZM54.5 301 48.2 301 48.2 281.8 54.6 281.8C59.3 281.8 61.9 283.6 61.9 286.9 61.9 288.6 61 290 59.3 290.8 61.6 291.6 62.8 293.1 62.8 295.3 62.7 299 59.8 301 54.5 301" fill="#00053E"/></g><g><path d="M75.3 301.3C69.1 301.3 65.1 297.4 65.1 291.4 65.1 285.5 69.3 281.5 75.4 281.5 77.7 281.5 79.6 282 81.3 282.9L81.4 283 80.7 286.9 80.4 286.7C78.8 285.6 77.2 285.1 75.5 285.1 71.8 285.1 69.6 287.5 69.6 291.5 69.6 295.4 71.9 297.8 75.6 297.8 77.3 297.8 79.1 297.3 80.8 296.2L81.1 296 81.7 299.6 81.6 299.7C79.9 300.7 77.6 301.3 75.3 301.3" fill="#00053E"/><path d="M20.4 275.8 20.4 325.9C20.4 347 31.9 362.2 54.3 368.2 76.7 362.2 88.2 347 88.2 325.9L88.2 275.8 20.4 275.8ZM54.3 365.5C33.1 359.5 23 345.5 23 325.5L23 278.3 85.6 278.3 85.6 325.5C85.6 345.5 75.5 359.5 54.3 365.5" fill="#00053E"/></g><g><path d="M54.3 307.8C59 307.8 59.7 309.7 63.5 309.7 67.3 309.7 67.9 307.8 72.7 307.8 77.4 307.8 78.1 309.7 81.9 309.7L81.9 305.3C78.1 305.3 77.5 303.4 72.7 303.4 68 303.4 67.3 305.3 63.5 305.3 59.7 305.3 59.1 303.4 54.3 303.4 49.6 303.4 48.9 305.3 45.1 305.3 41.3 305.3 40.7 303.4 35.9 303.4 31.2 303.4 30.5 305.3 26.7 305.3L26.7 309.7C30.5 309.7 31.1 307.8 35.9 307.8 40.6 307.8 41.3 309.7 45.1 309.7 49 309.7 49.6 307.8 54.3 307.8" fill="#00053E"/><path d="M57.3 315.7C59.6 316.2 60.7 317.3 63.5 317.3 67.3 317.3 67.9 315.4 72.7 315.4 77.4 315.4 78.1 317.3 81.9 317.3L81.9 312.9C78.1 312.9 77.5 311 72.7 311 68 311 67.3 312.9 63.5 312.9 60.4 312.9 59.4 311.7 56.7 311.2L57.3 315.7Z" fill="#00053E"/><path d="M45.1 317.3C47.9 317.3 49 316.3 51.3 315.7L51.9 311.2C49.2 311.7 48.2 312.9 45.1 312.9 41.3 312.9 40.7 311 35.9 311 31.2 311 30.5 312.9 26.7 312.9L26.7 317.3C30.5 317.3 31.1 315.4 35.9 315.4 40.7 315.4 41.4 317.3 45.1 317.3" fill="#00053E"/><path d="M58.4 323.7C59.7 324.1 60.7 324.7 62.2 324.9L64.8 320.5C64.4 320.6 63.9 320.6 63.4 320.6 60.8 320.6 59.7 319.7 57.7 319.2L58.4 323.7Z" fill="#00053E"/><path d="M70.5 323.2C71.1 323.1 71.8 323 72.7 323 77.4 323 78.1 324.9 81.9 324.9L81.9 320.5C78.1 320.5 77.5 318.6 72.7 318.6 72.3 318.6 71.9 318.6 71.6 318.6L70.5 323.2Z" fill="#00053E"/><path d="M38.1 323.2 37.1 318.7C36.8 318.7 36.4 318.7 36 318.7 31.3 318.7 30.6 320.6 26.8 320.6L26.8 325C30.6 325 31.2 323.1 36 323.1 36.8 323 37.5 323.1 38.1 323.2" fill="#00053E"/><path d="M46.4 324.9C47.9 324.7 48.9 324.2 50.2 323.7L50.8 319.1C48.8 319.7 47.7 320.5 45.1 320.5 44.6 320.5 44.1 320.5 43.7 320.4L46.4 324.9Z" fill="#00053E"/></g></svg>