<svg viewBox="0 0 652 652" xmlns="http://www.w3.org/2000/svg" xmlns:xlink="http://www.w3.org/1999/xlink" id="layer" overflow="hidden"><path d="M89.5 327.3 57.8 303.4 26.4 328.2C20.6 311.6 20.8 294.4 20.4 276.7L95.3 276.7C94.8 294 95 311 89.5 327.3" fill="#FFD140"/><path d="M85.2 337.5C84.1 339.7 82.8 341.9 81.4 344.1 75.7 352.9 67.2 359.3 57.9 363.7 48.5 359.4 40.1 352.9 34.4 344.1 33.2 342.2 32.1 340.3 31.1 338.4L58 315.7 85.2 337.5Z" fill="#FFD74F"/><path d="M57.8 363.7C48.4 359.4 40 352.9 34.3 344.1 20.4 322.7 21 300.1 20.4 276.6L95.3 276.6C94.7 300.1 95.3 322.8 81.4 344.1 75.6 352.9 67.1 359.4 57.8 363.7Z" stroke="#221E1F" stroke-width="3.0925" fill="none"/><path d="M35.9 289.4C32.1 288.6 28.7 285.8 29.5 282.2 29.5 282.2 29.4 281.3 29 281.2 29 281.2 28.9 281.1 28.9 281.1 28.8 281.1 28.6 281 28.5 280.9 28.5 280.9 28.3 280.8 28.3 280.7 28.2 280.8 28.2 281 28.1 281.1 28.1 281.1 28 281.2 28 281.2 27.9 281.2 27.9 281.3 27.9 281.3 27.6 281.6 27.8 282 27.8 282.3 27.8 282.4 27.8 282.5 27.7 282.5 27.6 282.5 27.7 282.5 27.5 282.4 27.5 282.4 27.4 282.3 27.4 282.3 27.3 282.3 27.1 282.2 27.1 282.2 27.1 282.1 27.1 282.1 27 282.1 26.9 282 26.9 281.7 26.8 281.5 26.8 281.5 26.7 281.2 26.7 281.2 26.7 281 26.1 280.6 26.3 280.8 26.4 280.9 26.3 280.7 26 280.6 25.8 280.5 25.6 280.6 25.3 280.6 25.3 280.6 25.2 280.6 25.2 280.7 25 280.9 24.7 281.1 24.4 281.1 24.5 281.1 24.5 281.1 24.5 281.2 24.6 281.4 24.5 281.6 24.6 281.8 24.7 282 24.8 282.2 25 282.3 25.2 282.4 25.5 282.3 25.6 282.5 25.6 282.5 25.9 282.6 25.6 282.8 25.1 283.3 24.5 282.9 24.1 283.9 24.7 283.6 24.8 284.6 25.1 284.6 26.3 284.8 27.3 285 27.9 286.2 28.3 286.9 27.2 287 28.2 287.2 28.7 287.3 29.1 287.6 29.3 287.9 29.6 288.3 29.6 288.8 29.9 289.2 30.1 289.5 30.2 289.5 30.5 289.7 30.6 289.8 31 289.9 31.1 289.9 31.2 289.9 31.3 290 31.5 290.1 31.6 290.1 31.8 290.2 31.9 290.3 32 290.4 32.3 290.5 32.3 290.6 32.4 290.8 32.3 291 32.4 291.2 32.4 291.3 32.6 291.2 32.7 291.2 32.8 291.2 32.9 291.2 32.9 291.2 33.1 291.1 33.2 291.1 33.4 291.1 33.7 291.1 33.7 291.2 34 291.1 34.1 291.1 34.1 291.2 34.2 291.2 34.3 291.2 34.4 291.3 34.4 291.2 34.5 290.8 34.7 290.5 34.9 290.2 35.1 289.9 35.1 289.8 35.3 289.5 35.6 289.7 35.9 289.4 35.9 289.4" fill="#B91E30"/><path d="M26.5 289.9C27.6 290.5 27.5 292 28.5 292.5 30.3 293.3 32.4 293.9 34.3 293 33.9 294.3 34.3 295.4 34.2 295.6 33.6 296.1 31.8 295.5 30.6 295.1 29.8 294.8 29.2 296 28.3 295.9 28.3 295.8 28.4 295.5 28.4 295.3 28.3 294.9 28.1 294.7 27.4 294.8 26.9 294.8 27.1 295.2 26.4 295.6 26.1 295.4 25.5 295.3 25.5 295.8 25.5 296 25 295 25.1 294.8 25.5 294 25.6 293.8 25.6 293.6 25.5 293.3 24.6 293 24.4 293.2 24.1 293.7 23.2 291.5 25.8 291.6 25.1 291.1 25.2 291.1 25.3 290.5 25.3 290.4 25.1 290.1 24.9 290.3 24.8 290.1 25 289.9 25.1 289.8 25.6 289.6 26 289.6 26.5 289.9" fill="#B91E30"/><path d="M31.7 284.4C33.3 284.8 35.7 282.7 37.1 285.1 36.1 284.8 33 286.4 31.7 284.4" fill="#B91E30"/><path d="M45.1 288C45.1 290.1 42.9 292.3 44.7 294.3 44 294.3 43.1 294 42.6 293.6 42.3 293.4 42.4 294.6 42.4 294.8 42.4 295 41.1 293.5 40.6 293.9 39.1 294.9 38.5 295.4 36.4 295.5 35.8 295.5 35.5 296 35.3 296.5 34.8 295.5 35.2 293.2 35.5 292.2 36.3 289.4 39 288.6 41.3 287.3 42.9 286.4 43.6 284.5 43.5 282.7 44.6 284.2 45.2 286.2 45.1 288" fill="#B91E30"/><path d="M34.9 311.5C35.2 311.6 35 311.8 34.9 311.9 34.7 312 34.5 312.2 34.4 312.4 34.3 312.6 34.2 312.7 34.3 313 34.3 313.1 34.4 313.3 34.4 313.4 34.4 313.5 34.5 313.5 34.6 313.6 34.6 313.6 34.7 313.8 34.7 313.8 34.6 313.6 34.9 313.4 35 313.4 36.4 314.2 36.5 312.6 37.3 312 37.6 311.8 38.4 312 38.2 312.8 39 312.4 39.3 311.3 39.9 310.6 41.3 309.1 43.3 308 45.2 307.2 44.5 306.5 43.5 305.9 43 305 42.7 304.6 42.4 303.8 43 303.9 45.3 304.5 46.6 303.1 46.9 301.3 50.3 301.7 51.2 298.5 51.7 296 51.9 294.8 52.6 294.7 51.9 292.7 51.6 291.8 53.4 291.6 53.1 290.1 53 289.7 52.5 289.3 52.2 289.2 52.5 290 51.2 290.2 51 290.5 50.8 291 50.5 291.4 50.4 291.9 49.3 290.4 50.2 288.5 51.2 287 52.7 284.9 55.9 286 57.3 287.4 57.3 286.7 56.8 285.8 56.4 285.4 57.7 285.2 59 286 60.7 285.1 61.7 284.6 62.7 284.1 63.1 283 61 283.3 58.2 281.7 56.3 281.3 52.8 280.7 50.4 283.1 49.2 286 47.9 288.9 48.7 291 50.1 293.1 50.4 293.6 48.9 293.3 48.3 293.6 47.7 293.9 47.5 294.6 47.6 295.3 48.3 294.5 50.3 295 50.5 296.4 50.7 298.3 48.9 301 47.1 300.2 45.2 299.3 44.1 297.3 43.4 295 41.7 296.4 38.7 295.2 37.2 296.6 35.8 297.9 39.3 298.8 40.7 299.5 41.2 299.7 41.7 300.2 41.6 300.9 39.5 299.7 36.9 301.1 37.1 303.3 37.2 305 39.3 306 41 306.2 41.7 306.3 42.2 307.1 41.3 307.6 39.8 308.6 38.1 309.6 36.4 307.9 36.1 307.6 35.1 307.8 34.9 308.3 34.8 308.6 34.8 309 34.8 309.2 34.9 309 35 308.8 35.1 308.8 35.3 308.8 35.5 309 35.4 309.1 35.3 309.9 34.1 309.4 33.8 310.1 33.8 310.1 33.8 310.1 33.8 310.1 33.8 310.2 33.8 310.2 33.7 310.2 33.5 310.6 33.2 310.9 33.7 311.3 33.7 311.2 34 311.7 34 311.7 34 311.3 34.4 311.3 34.4 311.3L34.6 311.3 34.9 311.5Z" fill="#B91E30"/><path d="M27.8 303.6C27.6 303.5 27.4 303.6 27.1 303.7 27 303.8 26.8 303.7 26.7 303.8 26.7 303.9 26.6 304 26.6 304.1 26.6 304.2 26.6 304.2 26.7 304.3 26.4 304.3 26.1 304.1 25.9 303.9 25.8 303.8 25.8 303.8 25.7 303.7 25.7 303.7 25.7 303.6 25.6 303.5 25.6 303.4 25.6 303.4 25.6 303.3 25.6 303.1 25.6 302.9 25.7 302.7 25.7 302.6 25.8 302.5 25.8 302.5 25.8 302.4 25.9 302.4 25.9 302.3 26 302.2 26.2 302.1 26.4 302 26.7 301.9 27 301.9 27.3 302.1 27.5 302.2 27.8 302.2 28 302.2 28.1 302.2 28.3 301.9 28.2 301.8 27.5 301.6 27.5 301.4 27.2 300.7 27.1 300.6 26.9 300.7 26.8 300.8 26.8 299.4 28.5 299.3 29.2 299.9 30.2 300.7 29.5 302.3 30.7 302.8 31.4 303 32.1 303.2 32.7 302.9 33.9 302.4 32.7 301.2 33.1 300.1 33.9 298 35.7 297.9 37.8 299.9 35.9 300.5 35 303 36.1 304.7 34.4 304 32.4 305.1 31.2 305.9 32.3 304.8 30.8 303.9 30.4 304.1L29.9 304.4C29.7 304.7 29.7 305 29.4 305.2 29.2 305.3 29.2 305.4 29 305.4 28.7 305.5 28.6 305.4 28.3 305.3 28.3 305.3 28.1 305.3 28.1 305.4 28 305.6 28.1 305.6 28.1 305.7 28.1 305.7 27.9 305.5 27.9 305.5 27.7 305.4 27.6 305.3 27.5 305.1 27.4 304.9 27.3 304.5 27.4 304.3 27.5 304.1 27.7 304 27.9 303.9 28.1 303.8 27.9 303.6 27.8 303.6" fill="#B91E30"/><path d="M68.1 285.1C68.3 285.2 68.1 285.5 67.9 285.5 67.7 285.6 67.4 285.5 67.2 285.5 66.4 285.8 66.4 287.7 66.5 287.5 66.6 287.3 67.2 287.4 67.6 287.5 68.2 287.6 68.7 286.4 69.1 286.4 70 286.5 70.9 287.7 71.3 288.4 71.4 288.5 70.9 288.5 70.9 289 72.2 288.9 73.3 289.7 74.2 290.5 74.7 289.7 75.1 289.2 75.6 288.7 73.7 286.8 69.8 286.2 70.4 282.8 70.5 282.4 70 282 69.8 281.8 69.6 281.6 69 281.5 68.6 281.5 69 282.3 68.3 282.3 68.4 283.6 68.4 283.6 68.3 283.6 68.3 283.6 68.1 283.5 67.9 283.3 67.6 283.2 67.4 283.1 67.2 283.1 67 283.1 66.9 283.1 66.7 283.2 66.6 283.3 66.4 283.4 66.3 283.6 66.2 283.8 66.2 283.8 66.1 283.9 66.1 283.9 66.1 283.9 66 284.1 66 284.1 66.1 284.1 66.4 284.1 66.5 284.2 66.6 284.3 66.6 284.5 66.7 284.6 66.8 284.8 66.9 284.8 67.1 284.9 67.4 285 67.7 285.1 68.1 285.1" fill="#B91E30"/><path d="M73.2 283.7C74.4 283.6 75.6 282.7 77 284.2 76.8 284.1 76.5 284 76.3 284.2 74.8 285.4 73 285 72.1 283.5 72.4 283.5 72.8 283.7 73.2 283.7" fill="#B91E30"/><path d="M78.4 288.1C80.4 287.1 82.4 286.3 83.2 283.8 83.4 283.3 83.7 284.5 83.8 284.6 84.9 287.6 82.7 290.6 83.2 293.7 82.5 293.3 81.7 293 80.9 293 78.2 292.9 77.5 294.6 77.4 294.4 76.7 293.6 74.5 293 74.7 293.1 73.3 291.9 77 288.8 78.4 288.1" fill="#B91E30"/><path d="M73 308.2C73.3 308.6 72.9 308 73.2 308.7 74.6 308.1 76.1 307.4 77.7 308.1 77 304.9 79.4 304.1 79.6 303.6 79.9 302.8 78.3 301.3 77.1 301.7 75.6 302.2 76.2 304.2 75.9 305.5 75.7 306.2 74.8 306.8 74.1 306.5 72.8 306.1 72.3 304.9 72 303.6 71.8 302.7 70.1 302.6 69.7 303.3 68.6 305.3 70.3 303.1 70.2 304.6 70.2 304.9 69 304.7 68.7 305.6 68.5 306.2 69.1 306.6 69.9 306.9 70 306.9 69.8 306.6 69.9 306.5 70 306.5 70.6 306.7 70.5 306.8 69.8 307.2 69.6 308.3 70.9 308.7 70.9 308.7 70.8 308.3 70.9 308.3 71.9 307.4 73 308.2 73 308.2" fill="#B91E30"/><path d="M51.2 328.7C52.4 329.3 52.8 328.7 54.4 328.4 54.6 328.4 55.5 328.9 55.8 329.2 54.2 329.5 52.3 330.9 51.2 328.7" fill="#B91E30"/><path d="M50.6 330C50.5 329.9 50.4 329.9 50.3 329.9 50.2 329.9 50.1 329.8 50 329.8 50 329.8 49.8 329.7 49.7 329.7 49.7 329.8 49.8 330 49.7 330 49.6 330.1 49.5 330.1 49.4 330.2 49.4 330.3 49.3 330.3 49.3 330.4 49.3 330.5 49.2 330.7 49.2 330.9 49.2 331 49.2 331.2 49.2 331.2 49.2 331.2 49.3 331.4 49.3 331.5 49.3 331.5 49.5 331.7 49.5 331.7 49.7 331.9 49.5 331.8 49.8 332.1 49.9 332.2 49.7 332.5 49.6 332.4 48.7 332.1 48.5 331.1 47.7 330.7 47.1 330.5 46.2 330.9 46.1 331.9 46.3 331.8 46.5 331.9 46.6 332.1 46.8 333 48.2 332.5 48.2 333.1 48.2 333.5 47.2 333 46.7 333.3 46.2 333.7 46.1 334.7 46.6 335.4 47.1 334.9 47.7 335.6 48.2 335.3 48.5 335.1 48.7 334.7 49 334.6 50.1 334.1 50.4 335.1 50.1 336.1 50.7 335.8 52 335.6 52.3 335.5 52.9 335.4 52.9 334.1 53.6 333.6 52.6 333.6 51.4 333.2 51.2 332.2 51.2 332.1 51.2 332 51.3 331.9 51.3 331.5 51.3 331.2 51.2 330.9 51.2 330.9 51.2 330.8 51.1 330.8 51.1 330.7 51 330.7 51 330.6 50.9 330.5 50.8 330.4 50.6 330.3 50.7 330.1 50.6 330.1 50.6 330" fill="#B91E30"/><path d="M43.4 336.7C43.8 337.5 41.7 336.2 40.9 337.4 40.6 337.8 40.8 338.7 40.8 339.2 41.3 338.8 41.8 339.6 42.7 338.8 42.8 338.9 42.9 338.9 42.8 339.1 42.5 339.4 42.3 339.8 42.5 340.3 42.6 340.6 43.4 341.1 43.4 341 43.5 340.5 44.4 341 44.5 339.9 44.6 339.5 44.7 338.7 45.3 339 45.9 339.2 46 339.9 45.9 340.5 46.8 340.2 48.4 339.3 49.4 340 50.7 340.9 52.8 341.3 54.4 341.8 53.4 341.1 53.1 339.3 53.2 338.1 50.8 338.6 48.3 338.5 46.1 337.5 45.5 337.2 45.6 336.5 45.4 335.9 45.2 335.2 44.4 334.7 43.6 334.7 43.2 334.7 42.2 335.6 42.4 335.6 42.3 335.6 42.3 335.7 42.3 335.8 42.5 335.7 42.7 335.8 42.8 336 42.9 336.1 42.9 336.3 43 336.4 43.1 336.5 43.4 336.6 43.4 336.7" fill="#B91E30"/><path d="M49.2 349.8C49.7 349.2 50 349.5 50.2 349.5 50.7 349.5 50.7 350.2 50.6 350.6 52.5 349.7 54.3 348.4 56.6 348.8 55.3 347.4 55.8 344.5 57.6 344.2 57.6 344.2 56.4 344 56.3 343.9 54.7 342.9 52.7 341.9 51.7 344 51.2 345.1 52.1 345.9 52.9 346.8 53 347 52.8 347.1 52.6 347.1 50.9 347.5 47.6 347.8 47.5 345.2 47.5 344.9 46.8 344.7 46.4 344.7 45.1 344.7 45.1 346.4 45.3 346.3 45.6 346.1 46.5 346.2 46.4 346.8 46.3 347.4 45.1 346.5 44.6 347.1 44.2 347.6 44.2 348.5 44.5 349 44.4 348.8 44.7 348.6 44.8 348.6 46.1 348.4 46.2 348.8 45.8 350.1 45.8 350.2 46.2 351 46.5 351.1 46.5 351.1 46.5 350.9 46.5 350.8 46.5 350.7 46.6 350.7 46.7 350.7 46.8 350.6 47 350.7 47.1 350.6 47.2 350.6 47.2 350.5 47.3 350.5 47.4 350.4 47.5 350.3 47.6 350.2 47.9 349.8 48.2 349.3 48.7 349.2 48.8 349.6 49 349.7 49.2 349.8" fill="#B91E30"/><path d="M63.1 355.9C64.3 354.7 65.2 353.1 66.5 351.9 65.1 351 63.3 350.2 63.1 348.3 63.1 348.2 63.3 348 63.3 348.1 65.3 349.2 68 349.3 69.4 347.3 70.6 345.6 71.1 343 73.3 342.8 72.5 341.3 73.4 339.7 74.6 338.9 74.2 338.7 73.6 338.4 73.2 338.5 72.6 338.6 72.4 339.4 71.7 339.5 72.7 336 70.7 331.2 66.9 331.3 66.2 331.3 65.3 331.9 65 332.7 64.8 333.4 64.7 334.4 65.2 335 66.5 336.5 67.4 338.1 67 340.1 67.9 339.3 68.7 338.2 68.7 337 68.7 336.7 69.2 336.9 69.3 336.8 70.3 335.3 68.6 334.3 67.7 333.4 67.4 333.1 68.1 332.7 68.2 332.8 71.5 333.8 71.8 337.8 70.4 340.4 70 339.9 68.6 340.1 68.2 339.9 69.7 340.7 69.3 340.8 69.3 341 69.2 341.5 67.8 341.3 67.5 341.6 67 342.2 66.7 342.4 66.7 344.4 67.3 343.7 68.2 342.7 69.1 343.1 71 344.1 69 347.4 67.2 348 65.6 348.5 64.2 348 63.3 346.6 61.9 344.6 62.9 342.3 61.9 340.3 61.1 340.5 61.3 341.6 60.8 341.4 59.3 340.7 58.4 339.1 57.3 337.7 56.8 337.9 56.6 338.3 56.2 338.3 55.6 338.3 54.3 338.1 54.1 338.4 53.8 338.8 53.6 341.5 56.3 342.5 58.1 343.2 59.6 343.8 60.7 345.2 59.9 345.3 59.7 344.9 59 344.9 58.4 344.9 58 345.1 57.5 345.4 57.1 345.6 56.5 346.5 56.6 347.2 57 350.5 60.9 350.6 62.7 352.7 63 353.1 62.2 354.5 61.5 355.1 60.9 355.6 59.4 354.3 59.6 353.3 59.8 352.5 57.7 351.9 57 352.9 57.3 352.9 57.4 353.1 57.3 353.2 57.2 354 58.1 354 58.1 354.4 58.1 354.9 57.6 354.2 57.2 354.1 56.4 353.9 55.5 354.2 55.1 354.9 55 355.1 54.6 355.4 54.8 355.8 55.4 355.5 55.8 356.5 56.4 356.2 56.8 356 57.1 355.7 57.5 355.8 57.7 355.8 57.9 356.1 57.7 356.2 56.5 356.9 55.6 358 56.5 359.2 56.5 358.9 56.7 358.7 56.9 358.7 57.2 358.6 57.7 358.8 58 358.7 58.5 358.5 58.3 358 58.5 357.6 58.8 357 59.9 356 60.5 356.7 60.6 356.8 60.5 357.3 60.2 357.3 60.5 357.3 60.8 357.6 61.1 357.6 61.2 357.6 61.3 357.6 61.3 357.6 61.4 357.6 61.4 357.6 61.5 357.5 61.6 357.4 61.8 357.2 61.8 357 62 357 62.4 357.1 62.5 356.8 62.7 356.6 62.8 356.4 63 356.3" fill="#B91E30"/><path d="M57.5 331.8C59.6 331.2 62 330.1 62.5 327.7 63.1 328.1 63.4 329 63.4 329.5 63.5 332.5 62.1 335.1 62.8 338.2 62.9 338.6 63.5 339.7 63.2 339.5 62.8 339.3 62.1 338.6 61.7 339 61.2 339.4 61.2 340.1 61 339.9 60.1 339.3 59.1 338.5 58.6 337.4 58.4 337 58.5 336.1 58.4 336.2 57.7 337 56.2 337.1 55.1 337.3 55.3 337.1 55.6 336.2 55.5 336 54.6 335.6 53.4 337 53.4 336.8 53.5 336.3 53.5 336.2 53.5 336.1 54.2 334.3 55.4 332.4 57.5 331.8" fill="#B91E30"/><path d="M41.6 280.9C42.2 280.9 42.6 280.5 42.9 280.2 42.9 280.5 43.3 281 43.2 281.3 43 281.7 42.5 282 42.4 282.4 42.2 283.2 42.8 284 42.3 284.8 40.9 287.1 37.9 286.4 35.9 286.9 36 286.7 35.9 286.3 35.7 286.2 36.6 286.3 37.8 286.1 38.1 285.4 38.4 284.5 38.5 283.9 38.1 283.2 37.4 282 36.1 282.6 35.1 283 34.9 282.3 35.6 281.8 36 281.7 37.1 281.4 38.1 280.9 39.1 280.6 39.9 280.2 40.7 281 41.6 280.9M40 282.1C40.1 282.1 40.1 282 40.1 282 39.3 280.9 38.4 281 38 282 37.8 282.6 39.4 282.4 40 282.1" fill="#B91E30"/><path d="M81.2 285.3C80.9 285.5 80.4 285.5 80.1 285.8 79.9 285.9 79.7 286.1 79.5 286.2 79.4 286.3 79.1 286.4 79 286.4 78.7 286.5 78.8 286.4 78.5 286.5 78.3 286.5 78.3 286.5 78.1 286.5 77.9 286.5 77.4 286.5 77.3 286.5 76.9 286.5 76.8 286.5 76.4 286.5 76.2 286.5 76 286.4 75.7 286.3 75.6 286.3 75.4 286.2 75.3 286.2 75.3 286 75.3 285.9 75.5 285.8 75.7 285.7 75.7 285.8 75.9 285.8 75.9 285.8 76.2 285.8 76.3 285.8 76.4 285.8 76.4 285.8 76.5 285.8 76.6 285.8 76.7 285.8 76.8 285.7 76.9 285.6 77 285.6 77.1 285.5 77.1 285.5 77.2 285.4 77.2 285.4 77.3 285.3 77.4 285.3 77.5 285.2 77.7 284.9 77.9 284.7 77.9 284.3 77.9 284 77.9 283.8 77.9 283.5 77.9 283.5 77.9 283.4 77.9 283.4 77.9 283.2 77.8 283 77.7 282.8 77.1 281.7 75.7 282.8 74.7 282.7 74.7 282.5 74.7 282.1 74.8 282 75.5 281.1 76.6 281.5 77.1 281.1 79 279.7 79.5 280.7 81.5 281.2 82.1 281.4 82.9 281 83.5 280.8 83.6 280.7 83.6 281.6 83.6 281.8 83.4 282.4 82.7 282.4 82.5 283 82.2 283.8 82.1 285 81.2 285.4M79.9 281.7C80 281.6 79.8 281.8 79.9 281.7 79.1 281.3 77.9 280.7 77.6 281.8 77.2 282.7 79.1 282.1 79.9 281.7" fill="#B91E30"/><path d="M60.2 325.7C61.1 325.9 62 325.9 62.6 325.2 62.9 326.4 61.8 326.5 61.6 327.1 61.3 328 61.3 328.9 60.5 329.3 58.8 330.2 56.7 331.3 54.7 331.4 54.7 331.2 54.6 330.7 54.9 330.7 55.6 330.7 56.1 330.2 56.3 329.8 56.5 329.2 56.3 327.9 55.8 327.6 55.2 327.3 54.7 327.8 54.2 328 54 327.4 54.9 326.4 56.4 326.5 56.4 326.5 57.1 325.7 57.1 325.7 57.8 325.1 58.9 325.4 60.2 325.7M57.6 327.2C57.9 327.3 58.9 326.8 59.3 326.6 59.4 326.5 59.4 326.5 59.5 326.4 59.5 326.4 59.5 326.4 59.5 326.4 59.2 326.3 59 326.3 58.7 326.3 58.5 326.3 58.3 326.1 58.1 326.1 58 326.1 58 326.1 57.9 326.1 57.8 326.1 57.8 326.2 57.7 326.2 57.6 326.2 57.5 326.2 57.4 326.3 57.3 326.4 57.2 326.5 57.2 326.6 57.2 326.7 57.2 326.9 57.3 327.1 57.4 327.2 57.5 327.2 57.6 327.2" fill="#B91E30"/><path d="M86.7 317.4C86.7 317.1 87.4 316.3 87.4 315.6 87.5 313.5 88.8 312.5 88.8 310.2 88.8 309.6 86.3 309 86.2 307.8 86.1 307.2 85.9 306.2 86.6 306.3 87.4 306.3 88.2 306.2 88.8 305.7 91.4 303.4 89.2 300.3 88.9 297.6 88.8 297 89.9 295.7 89.9 295.3 89.7 293 89.3 290.8 90.1 288.6 89.4 289.2 89.3 290.1 88.7 290.6 88.4 290.8 88.3 290.3 88.3 290.2 88.6 288.2 89.4 286.4 90.4 284.5 91.5 282.2 91 280.4 88.9 279.7 87 279.1 85.2 280.8 85 282.6 84.8 284.2 85.3 286.2 85.7 287.5 85.8 287.9 85.7 288.3 85.8 288.7 86.1 287.3 86.2 285.9 86.2 284.5 86.2 284.1 86.5 283.7 86.8 283.6 88 283.2 88.6 284.1 88.6 284.8 88.3 286.9 87.9 288.6 87.4 290.7 86.8 293.1 87.7 295.5 87.9 297.9 87 297.4 86 297.3 85.6 298.8 85.4 299.6 86.1 300.4 86.3 301.1 86.3 300.2 87.2 298.9 88 299.5 89 300.2 89.1 303.5 88.8 304 88.3 305 87.5 305.7 86.3 305.3 85.7 305.1 85.9 304.1 85.5 303.7 83.4 301.5 82.5 299 82.3 296 82.3 295.6 82.5 294.4 82.4 294.4 79.7 293.3 78.4 294.4 77.3 296 77.1 295.5 76.1 294.8 76 295 75.5 296 75.6 297.7 76.4 298.4 78.5 300.2 80.6 301.4 81.8 304 80.5 304.2 79.3 304.5 78.8 305.8 78.3 307.2 78.5 309.1 79.9 309.6 81.1 310 83.1 309.5 83.6 309.6 84.9 309.8 86.3 310.8 86.1 312 86.1 312.1 85.6 314.8 84.4 314.1 83.8 313.7 84.1 312.2 83.1 312 81.8 311.7 81.4 313.5 81.6 313.4 82 313 82.3 313.7 83.1 314.1 80.3 313.5 81.2 316 81.3 315.8 81.4 315.4 82 315.8 83 315.8 83 315.8 82.8 316 82.8 316 82.6 316.3 82.6 316.4 82.5 316.7 82.4 316.8 82.4 317 82.5 317.1 82.5 317.2 82.6 317.4 82.6 317.5 82.6 317.5 82.6 317.6 82.7 317.6 82.7 317.6 82.8 317.7 82.8 317.7 82.9 317.7 82.7 317.5 82.9 317.5 82.9 317.5 83.1 317.5 83.1 317.5 83.2 317.5 83.3 317.6 83.4 317.6 83.5 317.6 83.5 317.6 83.6 317.7 83.8 317.7 83.9 317.7 84 317.7 84.1 317.6 84.3 317.6 84.4 317.5 84.2 317.6 84.6 317.3 84.6 317.4 84.8 317 84.9 317.1 84.9 317.1 85.2 316.5 85.5 316.5 86.1 316.6 86.2 316.6 86.3 316.7 86.3 316.8 86.3 316.9 86.5 317.2 86.5 317.1 86.5 317 86.6 317.2 86.7 317.4" fill="#B91E30"/><path d="M66.5 291.7C66.3 291.6 66.3 291.3 66.2 291.2 66.2 291.2 66.1 291.1 66.1 291.1 66 291 66 291 66 290.9 65.9 290.5 65.9 290 66.3 289.8 66.3 289.8 66.3 289.8 66.3 289.8 66.3 289.8 66.4 289.7 66.4 289.7 66.4 289.7 66.5 289.7 66.5 289.6 66.5 289.6 66.5 289.6 66.5 289.6 66.6 289.5 66.6 289.3 66.4 289.3 66.5 289.3 66.6 289.3 66.7 289.3 66.7 289.3 66.8 289.3 66.8 289.3 67.2 289.4 67.8 289.6 67.9 290L68.1 290.2C68.6 291.3 68.4 293.9 71 294.5 72.3 294.8 73.7 295.2 75 295.2 74.7 296.5 74.7 298.2 75.7 299.2 74.2 298.4 73.1 298.5 71.8 297.3 71.2 296.7 69.8 296 69.1 296.1 68.8 296.1 69.5 295.2 68.9 295 68.5 294.9 67.4 294.9 67.2 295.2 66.3 296.5 65.4 296.5 65.1 296.8 65.5 296.5 63.7 295 65.9 294.2 66.1 294.1 66.2 293.6 65.9 293.5 65.5 293.3 65.1 293.6 64.7 293.9 64.2 294.2 64.1 293.1 63.3 293.5 63.1 291.2 65.2 291 66.4 292.4 66.5 292.5 66.8 292.4 66.7 292.3L66.5 291.7Z" fill="#B91E30"/><path d="M26 326.4 57.8 301.1 89.7 325.7 88.4 329.6 57.8 306.3 27.5 330.6Z" fill="#221E1F"/><path d="M30 336.8 57.8 314.1 85.7 335.6 83.8 339.5 57.8 319.5 32 340.5Z" fill="#221E1F"/><path d="M118.8 288.9 118.8 276 123.8 276 123.8 288.8C123.8 292.5 125.6 294.4 128.7 294.4 131.7 294.4 133.6 292.6 133.6 289L133.6 276 138.6 276 138.6 288.8C138.6 295.6 134.8 299 128.7 299 122.5 299 118.8 295.6 118.8 288.9" fill="#221E1F"/><path d="M143.5 276 148.1 276 158.7 289.9 158.7 276 163.6 276 163.6 298.6 159.4 298.6 148.4 284.3 148.4 298.6 143.5 298.6Z" fill="#221E1F"/><rect x="169.3" y="276" width="5" height="22.6" fill="#221E1F"/><path d="M178 276 183.5 276 189.4 291.9 195.3 276 200.6 276 191.5 298.8 187.1 298.8Z" fill="#221E1F"/><path d="M204.1 276 221.2 276 221.2 280.4 209.1 280.4 209.1 285 219.7 285 219.7 289.5 209.1 289.5 209.1 294.2 221.3 294.2 221.3 298.6 204.1 298.6Z" fill="#221E1F"/><path d="M225.8 276 236.1 276C239 276 241.2 276.8 242.7 278.3 244 279.6 244.6 281.3 244.6 283.5L244.6 283.6C244.6 287.3 242.6 289.5 239.8 290.6L245.3 298.7 239.5 298.7 234.7 291.5 230.8 291.5 230.8 298.7 225.8 298.7 225.8 276ZM235.8 287C238.2 287 239.6 285.7 239.6 283.8L239.6 283.7C239.6 281.6 238.1 280.5 235.7 280.5L230.8 280.5 230.8 287 235.8 287Z" fill="#221E1F"/><path d="M247.6 295.3 250.5 291.8C252.5 293.5 254.7 294.5 257.2 294.5 259.2 294.5 260.5 293.7 260.5 292.4L260.5 292.3C260.5 291 259.7 290.4 255.9 289.4 251.3 288.2 248.4 287 248.4 282.5L248.4 282.4C248.4 278.3 251.7 275.6 256.3 275.6 259.6 275.6 262.4 276.6 264.7 278.5L262.1 282.2C260.1 280.8 258.1 280 256.2 280 254.3 280 253.3 280.9 253.3 282L253.3 282.1C253.3 283.6 254.3 284.1 258.2 285.1 262.8 286.3 265.4 287.9 265.4 291.9L265.4 292C265.4 296.5 262 299 257.1 299 253.7 298.9 250.3 297.8 247.6 295.3" fill="#221E1F"/><rect x="270" y="276" width="5" height="22.6" fill="#221E1F"/><path d="M285.9 280.6 279 280.6 279 276 297.8 276 297.8 280.6 290.9 280.6 290.9 298.6 285.9 298.6Z" fill="#221E1F"/><path d="M307.9 289.7 299.3 276 305.1 276 310.5 285.1 315.9 276 321.6 276 312.9 289.6 312.9 298.6 307.9 298.6Z" fill="#221E1F"/><path d="M333.4 287.4 333.4 287.4C333.4 280.9 338.5 275.6 345.4 275.6 352.4 275.6 357.4 280.8 357.4 287.2L357.4 287.3C357.4 293.7 352.3 299 345.4 299 338.4 299 333.4 293.8 333.4 287.4M352.2 287.4 352.2 287.4C352.2 283.5 349.4 280.2 345.4 280.2 341.4 280.2 338.6 283.4 338.6 287.2L338.6 287.3C338.6 291.2 341.4 294.4 345.4 294.4 349.4 294.4 352.2 291.3 352.2 287.4" fill="#221E1F"/><path d="M361.8 276 379.1 276 379.1 280.5 366.8 280.5 366.8 285.4 377.6 285.4 377.6 289.9 366.8 289.9 366.8 298.6 361.8 298.6Z" fill="#221E1F"/><path d="M391 276 396.3 276 401 291.3 406.1 276 410.3 276 415.4 291.3 420.1 276 425.3 276 417.6 298.8 413.2 298.8 408.1 284 403 298.8 398.7 298.8Z" fill="#221E1F"/><path d="M433.8 275.9 438.4 275.9 448.1 298.7 442.9 298.7 440.8 293.6 431.2 293.6 429.1 298.7 424 298.7 433.8 275.9ZM439 289.2 436 281.9 433 289.2 439 289.2Z" fill="#221E1F"/><path d="M453.9 280.6 447.1 280.6 447.1 276 465.8 276 465.8 280.6 458.9 280.6 458.9 298.6 453.9 298.6Z" fill="#221E1F"/><path d="M469.6 276 486.6 276 486.6 280.4 474.5 280.4 474.5 285 485.2 285 485.2 289.5 474.5 289.5 474.5 294.2 486.8 294.2 486.8 298.6 469.6 298.6Z" fill="#221E1F"/><path d="M491.2 276 501.5 276C504.4 276 506.6 276.8 508.1 278.3 509.4 279.6 510 281.3 510 283.5L510 283.6C510 287.3 508 289.5 505.2 290.6L510.7 298.7 505 298.7 500.2 291.5 496.3 291.5 496.3 298.7 491.3 298.7 491.3 276ZM501.2 287C503.6 287 505 285.7 505 283.8L505 283.7C505 281.6 503.5 280.5 501.1 280.5L496.2 280.5 496.2 287 501.2 287Z" fill="#221E1F"/><path d="M514.6 276 519.6 276 519.6 294.1 530.8 294.1 530.8 298.6 514.6 298.6Z" fill="#221E1F"/><path d="M532.3 287.4 532.3 287.4C532.3 280.9 537.4 275.6 544.3 275.6 551.3 275.6 556.3 280.8 556.3 287.2L556.3 287.3C556.3 293.7 551.2 299 544.3 299 537.3 299 532.3 293.8 532.3 287.4M551.1 287.4 551.1 287.4C551.1 283.5 548.3 280.2 544.3 280.2 540.3 280.2 537.5 283.4 537.5 287.2L537.5 287.3C537.5 291.2 540.3 294.4 544.3 294.4 548.3 294.4 551.1 291.3 551.1 287.4" fill="#221E1F"/><path d="M559.7 287.4 559.7 287.4C559.7 280.9 564.8 275.6 571.7 275.6 578.7 275.6 583.7 280.8 583.7 287.2L583.7 287.3C583.7 293.7 578.6 299 571.7 299 564.7 299 559.7 293.8 559.7 287.4M578.6 287.4 578.6 287.4C578.6 283.5 575.8 280.2 571.8 280.2 567.8 280.2 565 283.4 565 287.2L565 287.3C565 291.2 567.8 294.4 571.8 294.4 575.8 294.4 578.6 291.3 578.6 287.4" fill="#221E1F"/><path d="M119 310.3 133.7 310.3 133.7 313.5 122.5 313.5 122.5 318.9 132.5 318.9 132.5 322.1 122.5 322.1 122.5 330.1 119 330.1Z" fill="#221E1F"/><path d="M142.2 310.1 145.4 310.1 154.1 330.1 150.4 330.1 148.4 325.3 139 325.3 137 330.1 133.4 330.1 142.2 310.1ZM147.2 322.2 143.8 314.3 140.4 322.2 147.2 322.2Z" fill="#221E1F"/><path d="M155.4 320.3 155.4 320.3C155.4 314.6 159.6 310 165.6 310 169.3 310 171.5 311.3 173.4 313.1L171.2 315.7C169.6 314.2 167.9 313.2 165.6 313.2 161.8 313.2 159.1 316.3 159.1 320.2L159.1 320.3C159.1 324.2 161.8 327.3 165.6 327.3 168 327.3 169.6 326.3 171.3 324.8L173.5 327.1C171.4 329.3 169.2 330.6 165.5 330.6 159.7 330.5 155.4 326 155.4 320.3" fill="#221E1F"/><path d="M176.9 321.7 176.9 310.3 180.4 310.3 180.4 321.6C180.4 325.3 182.3 327.2 185.4 327.2 188.5 327.2 190.4 325.4 190.4 321.7L190.4 310.3 193.9 310.3 193.9 321.6C193.9 327.5 190.6 330.5 185.4 330.5 180.2 330.4 176.9 327.5 176.9 321.7" fill="#221E1F"/><path d="M198.7 310.3 202.2 310.3 202.2 327 212.6 327 212.6 330.1 198.7 330.1Z" fill="#221E1F"/><path d="M218.3 313.5 212 313.5 212 310.3 228.1 310.3 228.1 313.5 221.8 313.5 221.8 330.1 218.3 330.1Z" fill="#221E1F"/><path d="M237.6 322.3 229.7 310.3 233.9 310.3 239.4 319 245 310.3 249 310.3 241.1 322.2 241.1 330.1 237.6 330.1Z" fill="#221E1F"/><path d="M258.6 320.3 258.6 320.3C258.6 314.7 262.9 310 269 310 275.1 310 279.3 314.6 279.3 320.2L279.3 320.3C279.3 325.9 275 330.6 268.9 330.6 262.8 330.5 258.6 325.9 258.6 320.3M275.7 320.3 275.7 320.3C275.7 316.4 272.9 313.2 269 313.2 265.1 313.2 262.3 316.3 262.3 320.2L262.3 320.3C262.3 324.2 265.1 327.3 269 327.3 272.9 327.3 275.7 324.1 275.7 320.3" fill="#221E1F"/><path d="M283.6 310.3 298.3 310.3 298.3 313.5 287.1 313.5 287.1 318.9 297.1 318.9 297.1 322.1 287.1 322.1 287.1 330.1 283.6 330.1Z" fill="#221E1F"/><path d="M309.3 327.2 311.4 324.7C313.3 326.3 315.2 327.3 317.7 327.3 319.9 327.3 321.2 326.3 321.2 324.8L321.2 324.7C321.2 323.3 320.4 322.5 316.7 321.7 312.5 320.7 310.1 319.4 310.1 315.8L310.1 315.7C310.1 312.3 312.9 309.9 316.9 309.9 319.8 309.9 322.1 310.8 324.1 312.4L322.2 315C320.4 313.7 318.6 313 316.8 313 314.8 313 313.6 314 313.6 315.4L313.6 315.5C313.6 317 314.5 317.7 318.3 318.6 322.5 319.6 324.7 321.1 324.7 324.4L324.7 324.5C324.7 328.2 321.8 330.4 317.6 330.4 314.6 330.4 311.7 329.4 309.3 327.2" fill="#221E1F"/><path d="M327.7 320.3 327.7 320.3C327.7 314.6 331.9 310 337.9 310 341.6 310 343.8 311.3 345.7 313.1L343.5 315.7C341.9 314.2 340.2 313.2 337.9 313.2 334.1 313.2 331.3 316.3 331.3 320.2L331.3 320.3C331.3 324.2 334 327.3 337.9 327.3 340.3 327.3 341.9 326.3 343.6 324.8L345.8 327.1C343.7 329.3 341.5 330.6 337.8 330.6 332 330.5 327.7 326 327.7 320.3" fill="#221E1F"/><rect x="349.4" y="310.3" width="3.5" height="19.8" fill="#221E1F"/><path d="M358.2 310.3 372.9 310.3 372.9 313.4 361.7 313.4 361.7 318.6 371.6 318.6 371.6 321.7 361.7 321.7 361.7 327 373 327 373 330.1 358.2 330.1Z" fill="#221E1F"/><path d="M377.2 310.3 380.4 310.3 391 324 391 310.3 394.5 310.3 394.5 330.1 391.5 330.1 380.6 316 380.6 330.1 377.2 330.1Z" fill="#221E1F"/><path d="M398.6 320.3 398.6 320.3C398.6 314.6 402.8 310 408.8 310 412.5 310 414.7 311.3 416.6 313.1L414.4 315.7C412.8 314.2 411.1 313.2 408.8 313.2 405 313.2 402.2 316.3 402.2 320.2L402.2 320.3C402.2 324.2 405 327.3 408.8 327.3 411.2 327.3 412.8 326.3 414.5 324.8L416.7 327.1C414.6 329.3 412.4 330.6 408.7 330.6 402.9 330.5 398.6 326 398.6 320.3" fill="#221E1F"/><path d="M420.4 310.3 435.1 310.3 435.1 313.4 423.9 313.4 423.9 318.6 433.8 318.6 433.8 321.7 423.9 321.7 423.9 327 435.2 327 435.2 330.1 420.4 330.1Z" fill="#221E1F"/><path d="M119.2 341.8 126.1 341.8C132.3 341.8 136.6 346.1 136.6 351.7L136.6 351.8C136.6 357.4 132.3 361.7 126.1 361.7L119.2 361.7 119.2 341.8ZM121.5 343.9 121.5 359.6 126.1 359.6C131.1 359.6 134.3 356.2 134.3 351.8L134.3 351.7C134.3 347.3 131.1 343.8 126.1 343.8L121.5 343.8Z" fill="#221E1F"/><path d="M139 354.4 139 354.4C139 350.1 142 346.7 146 346.7 150.3 346.7 152.8 350.2 152.8 354.4 152.8 354.7 152.8 354.9 152.8 355.1L141.2 355.1C141.5 358.3 143.8 360.1 146.4 360.1 148.4 360.1 149.8 359.3 151 358L152.4 359.2C150.9 360.8 149.1 362 146.4 362 142.3 362 139 358.9 139 354.4M150.6 353.5C150.4 350.8 148.8 348.5 145.9 348.5 143.3 348.5 141.4 350.6 141.1 353.5L150.6 353.5Z" fill="#221E1F"/><path d="M156.7 347 158.9 347 158.9 349.9C160.1 348.1 161.8 346.6 164.5 346.6 168 346.6 171.5 349.4 171.5 354.2L171.5 354.3C171.5 359.1 168 361.9 164.5 361.9 161.8 361.9 160 360.4 158.9 358.8L158.9 366.1 156.7 366.1 156.7 347ZM169.2 354.4 169.2 354.4C169.2 350.9 166.8 348.7 164 348.7 161.3 348.7 158.7 351 158.7 354.3L158.7 354.4C158.7 357.8 161.3 360.1 164 360.1 166.9 360 169.2 357.9 169.2 354.4" fill="#221E1F"/><path d="M174.4 357.4 174.4 357.4C174.4 354.3 177 352.6 180.7 352.6 182.6 352.6 183.9 352.9 185.2 353.2L185.2 352.7C185.2 350.1 183.6 348.7 180.8 348.7 179.1 348.7 177.7 349.2 176.3 349.8L175.7 348C177.3 347.3 178.9 346.8 181 346.8 183.1 346.8 184.7 347.3 185.7 348.4 186.7 349.4 187.2 350.8 187.2 352.7L187.2 361.7 185.1 361.7 185.1 359.5C184.1 360.8 182.4 362 179.8 362 177.1 362 174.4 360.4 174.4 357.4M185.2 356.3 185.2 354.9C184.1 354.6 182.7 354.3 180.9 354.3 178.1 354.3 176.6 355.5 176.6 357.3L176.6 357.4C176.6 359.3 178.3 360.3 180.3 360.3 183 360.2 185.2 358.6 185.2 356.3" fill="#221E1F"/><path d="M191.9 347 194.1 347 194.1 350.8C195.2 348.4 197.3 346.6 200.1 346.7L200.1 349.1 199.9 349.1C196.7 349.1 194.1 351.4 194.1 355.8L194.1 361.6 191.9 361.6 191.9 347Z" fill="#221E1F"/><path d="M204.7 357.8 204.7 349 202.7 349 202.7 347 204.7 347 204.7 342.6 206.9 342.6 206.9 347 211.5 347 211.5 348.9 206.9 348.9 206.9 357.5C206.9 359.3 207.9 359.9 209.4 359.9 210.1 359.9 210.8 359.8 211.5 359.4L211.5 361.3C210.7 361.7 209.9 361.9 208.9 361.9 206.5 361.9 204.7 360.7 204.7 357.8" fill="#221E1F"/><path d="M215.4 347 217.6 347 217.6 349.5C218.6 348.1 219.9 346.7 222.3 346.7 224.7 346.7 226.2 348 227 349.6 228 348 229.6 346.7 232.2 346.7 235.6 346.7 237.6 349 237.6 352.6L237.6 361.7 235.4 361.7 235.4 353.1C235.4 350.3 234 348.7 231.6 348.7 229.4 348.7 227.6 350.3 227.6 353.2L227.6 361.6 225.4 361.6 225.4 353C225.4 350.3 224 348.6 221.6 348.6 219.3 348.6 217.5 350.5 217.5 353.2L217.5 361.6 215.3 361.6 215.3 347Z" fill="#221E1F"/><path d="M241.5 354.4 241.5 354.4C241.5 350.1 244.5 346.7 248.5 346.7 252.8 346.7 255.3 350.2 255.3 354.4 255.3 354.7 255.3 354.9 255.3 355.1L243.7 355.1C244 358.3 246.3 360.1 248.9 360.1 250.9 360.1 252.3 359.3 253.5 358L254.9 359.2C253.4 360.8 251.6 362 248.9 362 244.8 362 241.5 358.9 241.5 354.4M253.1 353.5C252.9 350.8 251.3 348.5 248.4 348.5 245.8 348.5 243.9 350.6 243.6 353.5L253.1 353.5Z" fill="#221E1F"/><path d="M259.2 347 261.4 347 261.4 349.6C262.4 348 263.9 346.7 266.4 346.7 269.9 346.7 272 349.1 272 352.6L272 361.7 269.8 361.7 269.8 353.1C269.8 350.4 268.3 348.7 265.7 348.7 263.2 348.7 261.3 350.5 261.3 353.3L261.3 361.7 259.1 361.7 259.1 347Z" fill="#221E1F"/><path d="M277.4 357.8 277.4 349 275.4 349 275.4 347 277.4 347 277.4 342.6 279.6 342.6 279.6 347 284.2 347 284.2 348.9 279.6 348.9 279.6 357.5C279.6 359.3 280.6 359.9 282.1 359.9 282.8 359.9 283.5 359.8 284.2 359.4L284.2 361.3C283.4 361.7 282.6 361.9 281.6 361.9 279.2 361.9 277.4 360.7 277.4 357.8" fill="#221E1F"/><path d="M295.1 354.4 295.1 354.4C295.1 350.2 298.3 346.7 302.8 346.7 307.2 346.7 310.4 350.2 310.4 354.3L310.4 354.4C310.4 358.5 307.1 362.1 302.7 362.1 298.3 362 295.1 358.5 295.1 354.4M308.2 354.4 308.2 354.4C308.2 351.2 305.8 348.6 302.8 348.6 299.6 348.6 297.4 351.2 297.4 354.3L297.4 354.4C297.4 357.5 299.7 360.1 302.8 360.1 306 360 308.2 357.5 308.2 354.4" fill="#221E1F"/><path d="M314.1 348.9 312.1 348.9 312.1 347 314.1 347 314.1 345.7C314.1 344 314.5 342.8 315.4 341.9 316.1 341.2 317.2 340.8 318.5 340.8 319.5 340.8 320.2 340.9 320.9 341.2L320.9 343.1C320.1 342.9 319.5 342.7 318.8 342.7 317.1 342.7 316.2 343.7 316.2 345.8L316.2 347 320.9 347 320.9 348.9 316.3 348.9 316.3 361.6 314.1 361.6 314.1 348.9Z" fill="#221E1F"/><path d="M331.9 341.8 339.3 341.8C343.8 341.8 346.7 344.2 346.7 348.1L346.7 348.2C346.7 352.5 343.1 354.7 338.9 354.7L334.1 354.7 334.1 361.7 331.9 361.7 331.9 341.8ZM339.1 352.6C342.4 352.6 344.5 350.8 344.5 348.2L344.5 348.1C344.5 345.3 342.4 343.8 339.2 343.8L334.2 343.8 334.2 352.5 339.1 352.5Z" fill="#221E1F"/><path d="M350.5 340.9 352.7 340.9 352.7 349.5C353.7 347.9 355.2 346.6 357.7 346.6 361.2 346.6 363.3 349 363.3 352.5L363.3 361.6 361.1 361.6 361.1 353C361.1 350.3 359.6 348.6 357.1 348.6 354.6 348.6 352.7 350.4 352.7 353.2L352.7 361.6 350.5 361.6 350.5 340.9Z" fill="#221E1F"/><path d="M378.5 347 380.8 347 374.6 362.1C373.4 365.1 371.9 366.2 369.7 366.2 368.5 366.2 367.6 365.9 366.6 365.5L367.3 363.8C368 364.2 368.7 364.3 369.6 364.3 370.9 364.3 371.7 363.6 372.6 361.6L365.9 347 368.3 347 373.6 359.2 378.5 347Z" fill="#221E1F"/><path d="M382 359.8 383.1 358.2C384.7 359.4 386.5 360.1 388.2 360.1 390 360.1 391.2 359.2 391.2 357.8L391.2 357.7C391.2 356.2 389.5 355.7 387.5 355.1 385.2 354.4 382.7 353.7 382.7 351L382.7 350.9C382.7 348.4 384.8 346.7 387.7 346.7 389.5 346.7 391.5 347.3 393 348.3L392 349.9C390.6 349 389.1 348.5 387.7 348.5 386 348.5 384.9 349.4 384.9 350.6L384.9 350.7C384.9 352.1 386.7 352.6 388.7 353.2 391 353.9 393.4 354.8 393.4 357.4L393.4 357.5C393.4 360.3 391.1 361.9 388.2 361.9 385.9 361.9 383.6 361.1 382 359.8" fill="#221E1F"/><path d="M397.4 341.4 399.9 341.4 399.9 343.8 397.4 343.8 397.4 341.4ZM397.5 347 399.7 347 399.7 361.7 397.5 361.7 397.5 347Z" fill="#221E1F"/><path d="M403.9 354.4 403.9 354.4C403.9 350.2 407.1 346.7 411.4 346.7 414.2 346.7 415.9 347.9 417.3 349.3L415.9 350.8C414.7 349.6 413.4 348.6 411.4 348.6 408.4 348.6 406.2 351.1 406.2 354.3L406.2 354.4C406.2 357.6 408.5 360.1 411.6 360.1 413.5 360.1 414.9 359.2 416.1 357.9L417.5 359.2C416 360.8 414.3 362 411.5 362 407.1 362 403.9 358.5 403.9 354.4" fill="#221E1F"/><path d="M419.7 359.8 420.8 358.2C422.4 359.4 424.1 360.1 425.9 360.1 427.7 360.1 428.9 359.2 428.9 357.8L428.9 357.7C428.9 356.2 427.2 355.7 425.2 355.1 422.9 354.4 420.4 353.7 420.4 351L420.4 350.9C420.4 348.4 422.5 346.7 425.4 346.7 427.2 346.7 429.2 347.3 430.7 348.3L429.7 349.9C428.3 349 426.8 348.5 425.4 348.5 423.7 348.5 422.6 349.4 422.6 350.6L422.6 350.7C422.6 352.1 424.4 352.6 426.4 353.2 428.7 353.9 431.1 354.8 431.1 357.4L431.1 357.5C431.1 360.3 428.8 361.9 425.9 361.9 423.7 361.9 421.4 361.1 419.7 359.8" fill="#221E1F"/><path d="M455.2 358.8C453.4 360.7 451.3 361.9 448.7 361.9 445.1 361.9 442.5 359.7 442.5 356.3L442.5 356.2C442.5 353.6 444.3 351.7 447.3 350.5 445.9 348.9 445.3 347.7 445.3 346.1L445.3 346C445.3 343.4 447.4 341.3 450.5 341.3 453.3 341.3 455.3 343.3 455.3 345.8L455.3 345.9C455.3 348.4 453.5 350 450.6 351.1L455.1 355.7C456 354.4 456.8 352.9 457.5 351.3L459.3 352.1C458.4 354 457.5 355.7 456.4 357.1L459.9 360.6 458.2 361.9 455.2 358.8ZM453.8 357.4 448.5 351.9C445.9 352.9 444.7 354.5 444.7 356.2L444.7 356.3C444.7 358.4 446.4 360 448.8 360 450.7 360 452.3 359 453.8 357.4M453.2 346.1 453.2 346.1C453.2 344.5 452 343.3 450.4 343.3 448.6 343.3 447.4 344.5 447.4 346.2L447.4 346.3C447.4 347.5 447.9 348.3 449.4 350 451.9 349 453.2 347.8 453.2 346.1" fill="#221E1F"/><path d="M478.4 341.7 480.5 341.7 489.5 361.7 487.1 361.7 484.8 356.5 474 356.5 471.6 361.7 469.3 361.7 478.4 341.7ZM483.9 354.4 479.4 344.3 474.9 354.4 483.9 354.4Z" fill="#221E1F"/><path d="M491.3 359.8 492.4 358.2C494 359.4 495.8 360.1 497.5 360.1 499.3 360.1 500.5 359.2 500.5 357.8L500.5 357.7C500.5 356.2 498.8 355.7 496.8 355.1 494.5 354.4 491.9 353.7 491.9 351L491.9 350.9C491.9 348.4 494 346.7 496.9 346.7 498.7 346.7 500.7 347.3 502.2 348.3L501.2 349.9C499.8 349 498.3 348.5 496.9 348.5 495.2 348.5 494.1 349.4 494.1 350.6L494.1 350.7C494.1 352.1 495.9 352.6 497.9 353.2 500.2 353.9 502.6 354.8 502.6 357.4L502.6 357.5C502.6 360.3 500.3 361.9 497.4 361.9 495.3 361.9 493 361.1 491.3 359.8" fill="#221E1F"/><path d="M507.1 357.8 507.1 349 505.1 349 505.1 347 507.1 347 507.1 342.6 509.3 342.6 509.3 347 513.9 347 513.9 348.9 509.3 348.9 509.3 357.5C509.3 359.3 510.3 359.9 511.8 359.9 512.5 359.9 513.2 359.8 513.9 359.4L513.9 361.3C513.1 361.7 512.3 361.9 511.3 361.9 508.9 361.9 507.1 360.7 507.1 357.8" fill="#221E1F"/><path d="M517.8 347 520 347 520 350.8C521.1 348.4 523.2 346.6 526 346.7L526 349.1 525.8 349.1C522.6 349.1 520 351.4 520 355.8L520 361.6 517.8 361.6 517.8 347Z" fill="#221E1F"/><path d="M527.2 354.4 527.2 354.4C527.2 350.2 530.4 346.7 534.9 346.7 539.3 346.7 542.5 350.2 542.5 354.3L542.5 354.4C542.5 358.5 539.2 362.1 534.8 362.1 530.4 362 527.2 358.5 527.2 354.4M540.3 354.4 540.3 354.4C540.3 351.2 537.9 348.6 534.9 348.6 531.7 348.6 529.5 351.2 529.5 354.3L529.5 354.4C529.5 357.5 531.8 360.1 534.9 360.1 538 360 540.3 357.5 540.3 354.4" fill="#221E1F"/><path d="M545.9 347 548.1 347 548.1 349.6C549.1 348 550.6 346.7 553.1 346.7 556.6 346.7 558.7 349.1 558.7 352.6L558.7 361.7 556.5 361.7 556.5 353.1C556.5 350.4 555 348.7 552.5 348.7 550 348.7 548.1 350.5 548.1 353.3L548.1 361.7 545.9 361.7 545.9 347Z" fill="#221E1F"/><path d="M561.9 354.4 561.9 354.4C561.9 350.2 565.1 346.7 569.6 346.7 574 346.7 577.2 350.2 577.2 354.3L577.2 354.4C577.2 358.5 573.9 362.1 569.5 362.1 565.1 362 561.9 358.5 561.9 354.4M574.9 354.4 574.9 354.4C574.9 351.2 572.6 348.6 569.5 348.6 566.3 348.6 564.1 351.2 564.1 354.3L564.1 354.4C564.1 357.5 566.4 360.1 569.5 360.1 572.7 360 574.9 357.5 574.9 354.4" fill="#221E1F"/><path d="M580.5 347 582.7 347 582.7 349.5C583.7 348.1 585 346.7 587.4 346.7 589.8 346.7 591.3 348 592.1 349.6 593.1 348 594.7 346.7 597.3 346.7 600.7 346.7 602.7 349 602.7 352.6L602.7 361.7 600.5 361.7 600.5 353.1C600.5 350.3 599.1 348.7 596.7 348.7 594.5 348.7 592.7 350.3 592.7 353.2L592.7 361.6 590.5 361.6 590.5 353C590.5 350.3 589.1 348.6 586.7 348.6 584.4 348.6 582.6 350.5 582.6 353.2L582.6 361.6 580.4 361.6 580.4 347Z" fill="#221E1F"/><path d="M618 347 620.3 347 614.1 362.1C612.9 365.1 611.4 366.2 609.2 366.2 608 366.2 607.1 365.9 606.1 365.5L606.8 363.8C607.5 364.2 608.2 364.3 609.1 364.3 610.4 364.3 611.2 363.6 612.1 361.6L605.4 347 607.8 347 613.1 359.2 618 347Z" fill="#221E1F"/></svg>