<svg width="2500" height="2500" viewBox="0 0 300 300" xmlns="http://www.w3.org/2000/svg" xmlns:xlink="http://www.w3.org/1999/xlink" overflow="hidden"><path d="M300 255C300 279.854 279.853 300 255 300L45 300C20.146 300 0 279.854 0 255L0 45C0 20.147 20.147 0 45 0L255 0C279.853 0 300 20.147 300 45L300 255Z" fill="#2DC100"/><g fill="#FFFFFF"><path d="M200.803 111.88C176.59 113.145 155.535 120.485 138.441 137.068 121.17 153.822 113.286 174.352 115.441 199.802 105.977 198.63 97.357 197.34 88.688 196.61 85.694 196.358 82.141 196.716 79.605 198.147 71.187 202.897 63.117 208.26 53.552 214.239 55.307 206.301 56.443 199.35 58.454 192.664 59.933 187.75 59.248 185.015 54.721 181.815 25.655 161.294 13.403 130.583 22.572 98.965 31.055 69.715 51.887 51.976 80.193 42.729 118.828 30.109 162.247 42.982 185.74 73.656 194.225 84.736 199.428 97.172 200.803 111.88ZM89.366 102.028C89.589 96.245 84.578 91.035 78.626 90.861 72.532 90.682 67.52 95.339 67.342 101.344 67.162 107.43 71.817 112.307 77.955 112.463 84.04 112.617 89.141 107.954 89.366 102.028ZM147.507 90.857C141.533 90.967 136.485 96.055 136.591 101.861 136.7 107.879 141.652 112.587 147.795 112.513 153.954 112.439 158.625 107.681 158.567 101.536 158.516 95.504 153.586 90.746 147.507 90.857Z"/><path d="M255.201 262.83C247.534 259.416 240.501 254.294 233.013 253.512 225.554 252.733 217.713 257.036 209.909 257.834 186.138 260.266 164.842 253.641 147.282 237.402 113.885 206.512 118.657 159.148 157.296 133.834 191.637 111.336 242 118.836 266.212 150.053 287.341 177.293 284.858 213.453 259.064 236.337 251.6 242.96 248.914 248.41 253.703 257.141 254.587 258.753 254.688 260.794 255.201 262.83ZM167.927 178.331C172.808 178.336 176.827 174.516 177.012 169.695 177.207 164.591 173.102 160.31 167.991 160.289 162.931 160.266 158.692 164.607 158.868 169.635 159.034 174.439 163.081 178.325 167.927 178.331ZM224.188 160.309C219.452 160.276 215.428 164.153 215.235 168.938 215.03 174.055 219.007 178.257 224.071 178.27 228.969 178.286 232.839 174.582 233.017 169.708 233.207 164.579 229.228 160.344 224.188 160.309Z"/></g></svg>