<?xml version="1.0" encoding="utf-8"?>
<!-- Generator: Adobe Illustrator 22.0.1, SVG Export Plug-In . SVG Version: 6.00 Build 0)  -->
<svg version="1.1" id="Layer_1" xmlns="http://www.w3.org/2000/svg" xmlns:xlink="http://www.w3.org/1999/xlink" x="0px" y="0px"
	 viewBox="0 0 60 60" style="enable-background:new 0 0 60 60;" xml:space="preserve">
<style type="text/css">
	.st0{fill:#6FD2FF;}
	.st1{fill:#0074BE;}
</style>
<title></title>
<g id="icomoon-ignore">
</g>
<g>
	<path class="st0" d="M57.6,17.7L31,4.1L4.5,17.7l11.2,5.2V27l30.5,0c0,0,0-1.9,0-4L57.6,17.7z"/>
	<path class="st0" d="M6.1,41.8v9.3h38.1v-9.3H6.1z M25.3,48.6c-1.8,0-3.2-1-3.2-2.2c0-1.2,1.4-2.2,3.2-2.2c1.8,0,3.2,1,3.2,2.2
		C28.5,47.6,27.1,48.6,25.3,48.6z"/>
	<path class="st1" d="M44.5,51.3H4.9V40.6h39.6V51.3z M6.3,49.9H43V42H6.3V49.9z"/>
	<path class="st1" d="M24.7,48.8c-2.2,0-3.9-1.3-3.9-2.9c0-1.6,1.7-2.9,3.9-2.9s3.9,1.3,3.9,2.9C28.6,47.6,26.9,48.8,24.7,48.8z
		 M24.7,44.5c-1.4,0-2.5,0.8-2.5,1.4c0,0.7,1,1.4,2.5,1.4c1.4,0,2.5-0.8,2.5-1.4C27.1,45.3,26.1,44.5,24.7,44.5z"/>
	<path class="st1" d="M50.8,39.2H11.2V28.5h39.6V39.2z M12.7,37.8h36.7v-7.9H12.7V37.8z"/>
	<path class="st1" d="M35.8,34.6H34v-1.4h1.8V34.6z M32.1,34.6h-1.9v-1.4h1.9V34.6z M28.3,34.6h-1.9v-1.4h1.9V34.6z"/>
	<rect x="19" y="33.2" class="st1" width="5.4" height="1.4"/>
	<rect x="37.7" y="33.2" class="st1" width="5.4" height="1.4"/>
	<path class="st1" d="M5.6,34l-0.5-0.5C4.7,33,2.8,31,2.8,29.6c0-0.8,0.3-1.5,0.8-2c0.5-0.5,1.2-0.8,2-0.8c1.6,0,2.8,1.3,2.8,2.8
		c0,1.4-1.9,3.4-2.3,3.8L5.6,34z M5.6,28.2c-0.4,0-0.7,0.1-1,0.4c-0.3,0.3-0.4,0.6-0.4,1c0,0.4,0.7,1.4,1.4,2.2
		C6.4,31,7,30.1,7,29.6C7,28.9,6.4,28.2,5.6,28.2z"/>
	<rect x="4.9" y="21.1" class="st1" width="1.4" height="7.1"/>
	<path class="st1" d="M46.4,27H45v-8.4c-14.4-4.4-26.6-0.8-29.1,0V27h-1.4v-9.4l0.5-0.2c0.1-0.1,14.2-5.4,31-0.1l-0.2,0.7h0.7V27z"
		/>
	<polygon class="st1" points="14.9,23.7 2.4,17.7 30.5,3.3 58.7,17.7 46.3,23.6 45.7,22.3 55.5,17.7 30.5,4.9 5.6,17.7 15.5,22.4 	
		"/>
	<rect x="11.9" y="54.1" class="st1" width="38.1" height="1.4"/>
	<rect x="52.4" y="54.1" class="st1" width="2.5" height="1.4"/>
	<polygon class="st1" points="53.5,49.9 45.7,49.9 45.7,48.5 50.5,48.5 49.6,47.3 50.5,46.2 45.7,46.2 45.7,44.7 53.5,44.7 
		51.4,47.3 	"/>
	<rect x="30.4" y="43.4" class="st1" width="1.4" height="5.1"/>
</g>
</svg>
