<svg aria-hidden="true" style="position: absolute; width: 0; height: 0; overflow: hidden;" version="1.1" xmlns="http://www.w3.org/2000/svg" xmlns:xlink="http://www.w3.org/1999/xlink">
<defs>
<symbol id="icon-lenovo" viewBox="0 0 32 32">
<title>lenovo</title>
<path fill="#e2231a" style="fill: var(--color1, #e2231a)" d="M27.005 15.228c-0.003-0-0.006-0-0.009-0-0.596 0-1.080 0.484-1.080 1.080 0 0.026 0.001 0.052 0.003 0.078l-0-0.003c-0 0.011-0.001 0.024-0.001 0.037 0 0.612 0.492 1.11 1.102 1.119h0.001c0 0 0 0 0.001 0 0.601 0 1.088-0.487 1.088-1.088 0-0.024-0.001-0.048-0.002-0.071l0 0.003c0-0.011 0.001-0.024 0.001-0.037 0-0.612-0.492-1.109-1.103-1.117h-0.001zM18.325 15.228c-0.003-0-0.006-0-0.009-0-0.596 0-1.080 0.484-1.080 1.080 0 0.026 0.001 0.052 0.003 0.078l-0-0.003c-0 0.011-0.001 0.024-0.001 0.037 0 0.612 0.492 1.11 1.102 1.119h0.001c0 0 0 0 0.001 0 0.601 0 1.088-0.487 1.088-1.088 0-0.024-0.001-0.048-0.002-0.071l0 0.003c0-0.011 0.001-0.024 0.001-0.037 0-0.612-0.492-1.109-1.103-1.117h-0.001zM8.977 15.159c-0.011-0-0.024-0.001-0.037-0.001-0.338 0-0.638 0.16-0.83 0.408l-0.002 0.002c-0.154 0.213-0.246 0.478-0.246 0.766 0 0.076 0.006 0.151 0.019 0.223l-0.001-0.008 1.969-0.816c-0.148-0.341-0.481-0.575-0.87-0.575-0.001 0-0.003 0-0.004 0h0zM0 10.667v10.667h32v-10.667zM6.675 18.436h-3.705v-5.333h1.143v4.299h2.563zM9.097 17.608c0.011 0 0.023 0 0.036 0 0.44 0 0.841-0.165 1.145-0.436l-0.002 0.001 0.712 0.548c-0.488 0.485-1.16 0.784-1.902 0.784-0.002 0-0.004 0-0.006 0h0c-0.063 0.007-0.135 0.010-0.209 0.010-1.174 0-2.125-0.952-2.125-2.125s0.952-2.125 2.125-2.125c0.030 0 0.060 0.001 0.089 0.002l-0.004-0c0.031-0.002 0.067-0.003 0.103-0.003 0.601 0 1.141 0.257 1.517 0.668l0.001 0.002c0.261 0.314 0.438 0.706 0.492 1.136l0.001 0.011-2.883 1.2c0.222 0.204 0.519 0.33 0.846 0.33 0.022 0 0.045-0.001 0.067-0.002l-0.003 0zM15.608 18.436h-1.127v-2.336c-0.020-0.484-0.417-0.869-0.905-0.869-0.016 0-0.031 0-0.047 0.001l0.002-0c-0.016-0.001-0.035-0.002-0.053-0.002-0.482 0-0.874 0.388-0.88 0.869v2.337h-1.124v-4.105h1.128v0.588c0.312-0.399 0.793-0.654 1.333-0.657h0.001c0.026-0.002 0.057-0.002 0.088-0.002 0.873 0 1.58 0.707 1.58 1.58 0 0.018-0 0.036-0.001 0.054l0-0.003zM18.253 18.505c-1.134-0.049-2.035-0.98-2.035-2.122 0-1.173 0.951-2.124 2.124-2.124s2.124 0.951 2.124 2.123v0c-0.005 1.174-0.958 2.124-2.133 2.124-0.028 0-0.056-0.001-0.084-0.002l0.004 0zM21.987 18.435l-1.689-4.104h1.288l1.019 2.8 1.019-2.8h1.288l-1.689 4.104zM26.935 18.505c-1.134-0.049-2.035-0.98-2.035-2.122 0-1.173 0.951-2.124 2.124-2.124s2.124 0.951 2.124 2.123v0c-0.005 1.174-0.958 2.124-2.133 2.124-0.028 0-0.056-0.001-0.084-0.002l0.004 0zM29.601 17.948h-0.188v0.488h-0.113v-0.488h-0.183v-0.103h0.483zM30.323 18.436h-0.109v-0.42l-0.183 0.284h-0.017l-0.181-0.284v0.42h-0.109v-0.591h0.12l0.179 0.28 0.179-0.28h0.117z"></path>
</symbol>
<symbol id="icon-dell" viewBox="0 0 32 32">
<title>dell</title>
<path fill="#007db8" style="fill: var(--color2, #007db8)" d="M23.951 19.467v-7.035h1.629v5.605h2.853v1.427zM10.905 15.083l3.973-3.056c0.375 0.304 0.747 0.611 1.121 0.916l-3.769 2.853 0.815 0.713 3.769-2.955c0.375 0.304 0.747 0.611 1.121 0.917-0.431 0.366-1.658 1.334-2.89 2.295l-0.879 0.66 0.813 0.715 3.773-3.060-0.001-2.648h1.631v5.605h2.955v1.427h-4.483v-2.649c-1.327 1.017-2.649 2.039-3.975 3.056l-3.975-3.056c-0.192 0.972-0.871 1.813-1.749 2.259-0.38 0.196-0.796 0.32-1.22 0.368-0.244 0.029-0.489 0.023-0.735 0.023h-2.513v-7.032h2.899c0.792 0.008 1.518 0.287 2.091 0.748l-0.007-0.005c0.605 0.48 1.037 1.163 1.236 1.907zM6.219 13.86v4.28l1.271-0.001c0.56-0.019 1.054-0.286 1.378-0.694l0.003-0.004c0.315-0.393 0.506-0.897 0.506-1.446 0-0.392-0.097-0.762-0.269-1.085l0.006 0.013c-0.266-0.507-0.731-0.88-1.288-1.018l-0.014-0.003c-0.221-0.053-0.451-0.040-0.676-0.043zM15.76 0h0.449c2.641 0.036 5.117 0.709 7.292 1.872l-0.085-0.042c2.209 1.178 4.049 2.775 5.47 4.699l0.031 0.044c1.883 2.541 3.032 5.725 3.083 9.175l0 0.012v0.48c-0.054 4.152-1.686 7.913-4.322 10.719l0.008-0.008c-2.873 3.063-6.927 4.989-11.432 5.049l-0.011 0h-0.481c-1.995-0.031-3.89-0.423-5.635-1.112l0.108 0.038c-2.231-0.882-4.13-2.166-5.695-3.777l-0.004-0.004c-1.67-1.716-2.962-3.808-3.735-6.137l-0.033-0.113c-0.462-1.385-0.741-2.981-0.768-4.639l-0-0.013v-0.481c0.056-3.184 1.040-6.128 2.692-8.585l-0.036 0.057c1.582-2.364 3.7-4.252 6.188-5.52l0.092-0.043c1.988-1.016 4.33-1.628 6.81-1.669l0.014-0zM15.556 1.64c-3.268 0.096-6.244 1.275-8.6 3.187l0.026-0.021c-1.959 1.586-3.477 3.642-4.392 5.999l-0.033 0.098c-0.586 1.513-0.926 3.264-0.926 5.094 0 2.072 0.435 4.043 1.22 5.825l-0.036-0.093c1.061 2.4 2.675 4.389 4.688 5.867l0.040 0.028c1.791 1.319 3.954 2.238 6.304 2.585l0.078 0.009c1.941 0.279 3.94 0.165 5.835-0.347 2.688-0.741 4.98-2.165 6.759-4.074l0.008-0.009c1.772-1.898 3.037-4.291 3.566-6.949l0.015-0.091c0.167-0.827 0.262-1.778 0.262-2.751 0-1.24-0.155-2.443-0.447-3.592l0.022 0.101c-1.232-4.82-4.782-8.602-9.363-10.139l-0.101-0.029c-1.33-0.449-2.862-0.708-4.454-0.708-0.165 0-0.33 0.003-0.493 0.008l0.024-0.001z"></path>
</symbol>
<symbol id="icon-ibm" viewBox="0 0 32 32">
<title>ibm</title>
<path fill="#054ada" style="fill: var(--color3, #054ada)" d="M0 21.525h6.223v0.891h-6.223zM0 19.816h6.223v0.893h-6.223zM1.773 18.111h2.671v0.895h-2.671zM1.773 16.407h2.671v0.893h-2.671zM1.773 14.7h2.671v0.895h-2.671zM1.773 12.992h2.671v0.895h-2.671zM0 11.288h6.223v0.893h-6.223zM0 9.583h6.223v0.893h-6.223zM7.109 20.709h9.569c0.16-0.275 0.283-0.577 0.356-0.893h-9.924zM15.933 16.407h-7.044v0.893h7.791c-0.205-0.345-0.454-0.64-0.742-0.89l-0.005-0.004zM8.888 14.7v0.895h7.047c0.297-0.251 0.547-0.552 0.745-0.895zM16.679 11.288h-9.569v0.893h9.924c-0.089-0.34-0.21-0.637-0.365-0.913l0.010 0.020zM13.737 9.583h-6.628v0.893h8.913c-0.598-0.554-1.4-0.893-2.283-0.893-0.001 0-0.002 0-0.003 0h0zM8.888 12.992h2.667v0.895h-2.667zM14.223 13.887h2.789c0.079-0.285 0.12-0.587 0.12-0.895h-2.909zM8.888 18.111h2.665v0.895h-2.667zM14.223 18.111v0.895h2.909c0-0.307-0.041-0.609-0.12-0.895zM7.109 22.409l6.627 0.009c0.889 0 1.691-0.343 2.289-0.893h-8.916zM17.779 21.525h4.443v0.891h-4.443zM17.779 19.816h4.443v0.893h-4.443zM19.553 18.111h2.667v0.895h-2.667zM19.553 16.407h2.667v0.893h-2.667zM23.459 11.288h-5.68v0.893h5.987zM22.869 9.583h-5.091v0.892h5.397zM27.553 21.525h4.447v0.891h-4.447zM27.553 19.816h4.447v0.893h-4.447zM27.553 18.111h2.667v0.895h-2.667zM27.553 16.407h2.667v0.893h-2.667zM27.553 15.595h2.667v-0.895h-5.081l-0.251 0.723-0.251-0.723h-5.084v0.895h2.667v-0.821l0.284 0.821h4.767l0.283-0.821zM30.221 12.992h-4.493l-0.307 0.895h4.8zM26.911 9.583l-0.308 0.892h5.397v-0.892zM24.888 22.409l0.307-0.884h-0.615zM24.299 20.709h1.179l0.317-0.893h-1.809zM23.7 19.005h2.376l0.313-0.895h-3.004zM23.103 17.3h3.572l0.305-0.893h-4.184zM19.553 13.887h4.803l-0.308-0.895h-4.495zM26.013 12.181h5.987v-0.893h-5.683z"></path>
</symbol>
<symbol id="icon-lyft" viewBox="0 0 32 32">
<title>lyft</title>
<path fill="#ff00bf" style="fill: var(--color4, #ff00bf)" d="M32 14.829v-4.683h-1.671c-0.699-3.68-4.565-6.1-8.453-4.644-2.165 0.808-3.925 3.395-3.925 5.709v10.641h0.187c0.004 0 0.004 0 0.008 0s0.004 0 0.008 0c1.205-0.051 2.333-0.561 3.173-1.436 0.843-0.879 1.308-2.029 1.308-3.243h1.951v-4.687h-1.951v-1.288c0-0.5 0.265-0.968 0.703-1.209 1.199-0.668 2.42 0.191 2.42 1.327v4.293c0 1.697 0.64 3.275 1.803 4.441 1.112 1.112 2.619 1.752 4.239 1.803 0 0 0.004 0 0.004 0s0 0 0.004 0v0h0.191v-4.683c0 0 0 0 0 0-0.875-0.004-1.561-0.707-1.561-1.561v-0.78zM4.683 17.951v-12.488h-4.683v11.707c0 3.216 2.123 4.683 4.097 4.683v0c0.589 0 1.179-0.136 1.705-0.383 0.079-0.035 0.203-0.113 0.203-0.113s-0.117-0.125-0.168-0.18c-0.749-0.855-1.155-1.963-1.155-3.225zM12.097 16.5c0 0.195-0.093 0.383-0.253 0.492-0.628 0.441-1.308-0.004-1.308-0.601v-6.244h-4.683v7.805c0 2.151 1.752 3.903 3.903 3.903 0.929 0 1.831-0.332 2.536-0.936-0.075 0.577-0.391 1.053-0.921 1.385-0.496 0.312-1.144 0.476-1.869 0.476-0.749 0-1.511-0.176-2.201-0.507 0 0-0.125-0.059-0.281-0.148v4.16c1.041 0.421 2.185 0.644 3.289 0.644 1.748 0 3.344-0.547 4.496-1.541 1.292-1.112 1.975-2.74 1.975-4.703v-10.536h-4.683z"></path>
</symbol>
<symbol id="icon-ubereats" viewBox="0 0 32 32">
<title>ubereats</title>
<path fill="#5fb709" style="fill: var(--color5, #5fb709)" d="M0 3.667v6.787c0 2.56 1.787 4.253 4.107 4.253 1.133 0 2.147-0.44 2.867-1.2v1.013h1.613v-10.853h-1.627v6.693c0 1.72-1.16 2.88-2.667 2.88-1.52 0-2.667-1.133-2.667-2.88v-6.693h-1.627zM9.8 3.667v10.853h1.533v-1c0.717 0.733 1.716 1.187 2.821 1.187 0.007 0 0.013-0 0.020-0h-0.001c0.008 0 0.017 0 0.027 0 2.275 0 4.12-1.845 4.12-4.12 0-0.005 0-0.009-0-0.014v0.001c0-0.004 0-0.009 0-0.013 0-2.275-1.845-4.12-4.12-4.12-0.009 0-0.019 0-0.028 0h0.001c-1.107 0-2.093 0.453-2.84 1.173v-3.947h-1.533zM23.013 6.453c-2.347 0-4.067 1.88-4.067 4.107 0 2.36 1.827 4.107 4.2 4.107 1.44 0 2.627-0.613 3.413-1.667l-1.133-0.84c-0.587 0.787-1.36 1.173-2.28 1.173-1.333 0-2.4-0.973-2.613-2.253h6.427v-0.52c0-2.347-1.667-4.107-3.947-4.107zM31.267 6.547c-0.867 0-1.493 0.4-1.88 1.040v-0.973h-1.56v7.907h1.573v-4.52c0-1.2 0.747-2 1.76-2h0.653v-1.453h-0.547zM22.973 7.813c1.173 0 2.147 0.813 2.413 2.027h-4.827c0.28-1.213 1.253-2.027 2.413-2.027zM14.067 7.84c1.48 0 2.707 1.2 2.707 2.733 0 1.52-1.227 2.76-2.707 2.76-0.004 0-0.009 0-0.014 0-1.502 0-2.72-1.218-2.72-2.72 0-0.014 0-0.028 0-0.042l-0 0.002c0-1.533 1.227-2.733 2.733-2.733zM0 17.28v10.853h7.627v-1.853h-5.56v-2.693h5.413v-1.8h-5.413v-2.653h5.56v-1.853h-7.627zM19.413 17.84v2.28h-1.547v1.813h1.547v4.267c0 1.080 0.76 1.933 2.133 1.933h2.187v-1.813h-1.52c-0.467 0-0.76-0.213-0.76-0.64v-3.747h2.28v-1.813h-2.28v-2.28h-2.040zM12.427 19.92c-2.387 0-4.267 1.867-4.267 4.213 0 2.333 1.88 4.2 4.267 4.2 0.96 0 1.853-0.333 2.56-0.92v0.72h2.027v-8.013h-2.027v0.72c-0.68-0.572-1.566-0.92-2.533-0.92-0.009 0-0.019 0-0.028 0h0.001zM28.053 19.92c-2.12 0-3.6 0.867-3.6 2.56 0 1.16 0.813 1.92 2.573 2.293l1.933 0.453c0.76 0.147 0.96 0.347 0.96 0.667 0 0.493-0.587 0.813-1.507 0.813-1.16 0-1.827-0.267-2.093-1.147h-2.040c0.293 1.667 1.533 2.773 4.067 2.773 2.32 0 3.653-1.107 3.653-2.653 0-1.093-0.773-1.907-2.413-2.253l-1.72-0.36c-1-0.187-1.32-0.4-1.32-0.747 0-0.48 0.48-0.773 1.373-0.773 0.96 0 1.667 0.267 1.867 1.12h2.027c-0.107-1.64-1.32-2.747-3.76-2.747zM12.6 21.68c1.347 0 2.427 1.080 2.427 2.453s-1.080 2.44-2.427 2.44c-0.004 0-0.009 0-0.013 0-1.34 0-2.427-1.086-2.427-2.427 0-0.005 0-0.009 0-0.014v0.001c0-1.373 1.107-2.453 2.44-2.453z"></path>
</symbol>
<symbol id="icon-uber" viewBox="0 0 32 32">
<title>uber</title>
<path d="M0 10.627v6.613c0 2.493 1.733 4.133 4 4.133 1.107 0 2.080-0.427 2.787-1.16v0.987h1.573v-10.573h-1.587v6.52c0 1.68-1.133 2.813-2.587 2.813-1.48 0-2.6-1.107-2.6-2.813v-6.52h-1.587zM9.92 10.627v10.573h1.507v-0.973c0.697 0.708 1.666 1.147 2.737 1.147 0.003 0 0.007 0 0.010 0h-0.001c0.012 0 0.026 0 0.040 0 2.209 0 4-1.791 4-4 0-0.014-0-0.028-0-0.042l0 0.002c0-0 0-0 0-0 0-2.209-1.791-4-4-4-0.014 0-0.028 0-0.042 0l0.002-0c-0.002 0-0.005 0-0.007 0-1.068 0-2.033 0.439-2.725 1.146l-0.001 0.001v-3.853h-1.52zM23.080 13.333c-2.253 0-3.96 1.84-3.96 4 0 2.307 1.787 4 4.093 4 1.413 0 2.56-0.587 3.32-1.613l-1.093-0.827c-0.573 0.773-1.333 1.107-2.227 1.107-1.293 0-2.333-0.907-2.547-2.16h6.267v-0.507c0-2.28-1.64-4-3.853-4zM31.467 13.44c-0.84 0-1.467 0.387-1.84 1v-0.947h-1.507v7.707h1.52v-4.387c0-1.187 0.733-1.96 1.733-1.96h0.627v-1.427h-0.533zM23.053 14.667c1.133 0 2.080 0.787 2.333 1.96h-4.72c0.307-1.173 1.253-1.96 2.387-1.96zM14.067 14.667c1.453 0 2.64 1.2 2.64 2.667 0 1.507-1.187 2.667-2.64 2.667-1.467-0.008-2.653-1.199-2.653-2.667 0 0 0-0 0-0v0c0 0 0-0 0-0 0-1.468 1.186-2.659 2.653-2.667h0.001z"></path>
</symbol>
<symbol id="icon-baidu" viewBox="0 0 32 32">
<title>baidu</title>
<path fill="#2319dc" style="fill: var(--color6, #2319dc)" d="M5.749 16.867c3.48-0.749 3-4.912 2.901-5.821-0.171-1.4-1.821-3.851-4.059-3.653-2.813 0.248-3.224 4.32-3.224 4.32-0.383 1.88 0.909 5.901 4.381 5.153zM12.209 9.879c1.92 0 3.472-2.213 3.472-4.947 0-2.72-1.547-4.933-3.467-4.933s-3.481 2.201-3.481 4.935 1.56 4.947 3.48 4.947zM20.489 10.207c2.573 0.347 4.216-2.4 4.549-4.48 0.333-2.067-1.333-4.48-3.147-4.893-1.827-0.421-4.080 2.499-4.307 4.4-0.24 2.333 0.333 4.653 2.893 4.983zM30.667 13.712c0-0.995-0.817-3.991-3.88-3.991-3.060 0-3.48 2.827-3.48 4.827 0 1.907 0.157 4.56 3.98 4.48 3.807-0.093 3.391-4.32 3.391-5.32zM26.8 22.427c0 0-3.98-3.080-6.301-6.4-3.147-4.903-7.62-2.907-9.112-0.421-1.493 2.511-3.813 4.083-4.14 4.503-0.333 0.413-4.8 2.827-3.805 7.227 1 4.4 4.48 4.32 4.48 4.32s2.56 0.253 5.547-0.413 5.547 0.16 5.547 0.16 6.943 2.333 8.864-2.147c1.899-4.493-1.080-6.813-1.080-6.813z"></path>
</symbol>
<symbol id="icon-ebay" viewBox="0 0 32 32">
<title>ebay</title>
<path fill="#e53238" style="fill: var(--color7, #e53238)" d="M8.075 16.173v-6.56h1.6v4.035c0.787-0.937 1.869-1.208 2.936-1.208 1.787 0 3.771 1.205 3.771 3.807 0 0.311-0.020 0.609-0.080 0.891 0.32-1.271 1.699-1.74 3.861-1.792 0.68-0.024 1.46-0.024 2.080-0.024v-0.18c0-1.18-0.741-1.659-2.040-1.659-0.96 0-1.66 0.4-1.74 1.080h-1.7c0.181-1.72 2-2.16 3.581-2.16 1.419 0 2.66 0.36 3.22 1.36l-0.581-1.12h1.88l2.74 5.5 2.74-5.501h1.657l-4.96 9.74h-1.795l1.427-2.72-3.107-5.84c0.173 0.34 0.267 0.74 0.267 1.24v3.28c0 0.461 0.013 0.92 0.053 1.34h-1.485c-0.040-0.34-0.061-0.68-0.061-1.020-0.804 0.979-1.76 1.28-3.093 1.28-1.973 0-3.029-1.040-3.029-2.26 0-0.2 0.020-0.379 0.049-0.54-0.4 1.661-1.813 2.781-3.689 2.781-1.16 0-2.259-0.42-2.933-1.24 0 0.32-0.020 0.659-0.053 0.979h-1.573c0.027-0.52 0.053-1.14 0.053-1.66v-1.4h-6.44c0.087 1.46 1.091 2.32 2.471 2.32 0.957 0 1.807-0.4 2.091-1.24h1.653c-0.32 1.72-2.147 2.3-3.72 2.3-2.857 0.028-4.124-1.555-4.124-3.675 0-2.339 1.309-3.88 4.155-3.88 2.251 0 3.907 1.181 3.92 3.741zM20.257 16.417c-1.46 0.045-2.36 0.311-2.36 1.267 0 0.62 0.48 1.293 1.74 1.293 1.68 0 2.58-0.92 2.58-2.419v-0.173c-0.6 0-1.32 0.008-1.979 0.029zM12.177 18.917c1.48 0 2.501-1.075 2.501-2.693s-1.024-2.693-2.524-2.693c-1.48 0-2.52 1.075-2.52 2.693s1.020 2.693 2.5 2.693zM6.377 15.565c-0.059-1.5-1.139-2.061-2.3-2.061-1.259 0-2.259 0.632-2.42 2.061z"></path>
</symbol>
<symbol id="icon-nokia" viewBox="0 0 32 32">
<title>nokia</title>
<path fill="#124191" style="fill: var(--color8, #124191)" d="M1.551 18.605h-1.54v-5.187h2.663l3.056 3.872v-3.872h1.54v5.187h-2.609l-3.109-3.939v3.939zM14.636 17.001c0 0.72-0.129 0.969-0.343 1.208-0.325 0.355-0.8 0.461-1.717 0.461h-2.629c-0.915 0-1.391-0.107-1.717-0.461-0.213-0.239-0.341-0.487-0.341-1.208v-2c0-0.72 0.128-0.968 0.341-1.207 0.327-0.355 0.803-0.463 1.717-0.463h2.629c0.916 0 1.392 0.107 1.717 0.463 0.213 0.239 0.343 0.487 0.343 1.208v1.999zM12.512 17.357c0.352 0 0.475-0.021 0.56-0.097 0.079-0.071 0.113-0.161 0.113-0.467v-1.583c0-0.305-0.035-0.396-0.113-0.467-0.085-0.077-0.208-0.097-0.56-0.097h-2.5c-0.352 0-0.476 0.020-0.56 0.097-0.080 0.071-0.113 0.161-0.113 0.467v1.583c0 0.305 0.035 0.396 0.113 0.467 0.084 0.076 0.208 0.097 0.56 0.097h2.5zM16.873 13.419v5.187h-1.609v-5.187h1.609zM19.592 13.419h2.124l-2.867 2.427 3.233 2.76h-2.273l-2.936-2.705 2.719-2.48zM22.379 13.42h1.609v5.185h-1.609zM30.123 18.605l-0.476-0.904h-3.113l-0.471 0.904h-1.777l2.852-5.187h2l2.852 5.187h-1.867zM27.092 16.576h2l-1-1.879-1 1.879z"></path>
</symbol>
<symbol id="icon-huawei" viewBox="0 0 32 32">
<title>huawei</title>
<path fill="#f00" style="fill: var(--color9, #f00)" d="M4.893 8.187c0 0-2.467 2.36-2.6 4.853v0.467c0.107 2.013 1.627 3.2 1.627 3.2 2.44 2.387 8.347 5.387 9.733 6.067 0 0 0.080 0.040 0.133-0.013l0.027-0.053v-0.053c-3.787-8.253-8.92-14.467-8.92-14.467zM12.867 24.8c-0.027-0.107-0.133-0.107-0.133-0.107l-9.84 0.347c1.067 1.907 2.867 3.373 4.747 2.933 1.28-0.333 4.213-2.373 5.173-3.067 0.080-0.067 0.053-0.12 0.053-0.107zM12.973 23.76c-4.32-2.92-12.693-7.387-12.693-7.387-0.2 0.613-0.267 1.2-0.28 1.733v0.093c0 1.427 0.533 2.427 0.533 2.427 1.067 2.253 3.12 2.933 3.12 2.933 0.933 0.4 1.867 0.413 1.867 0.413 0.16 0.027 5.867 0 7.387 0 0.067 0 0.107-0.067 0.107-0.067v-0.080c0-0.040-0.040-0.067-0.040-0.067zM12.080 4.253c-1.918 0.502-3.327 2.173-3.426 4.189l-0 0.011v0.547c0.040 0.8 0.213 1.4 0.213 1.4 0.88 3.867 5.147 10.2 6.067 11.533 0.067 0.067 0.133 0.040 0.133 0.040 0.048-0.021 0.080-0.068 0.080-0.122 0-0.004-0-0.008-0-0.011l0 0c1.413-14.133-1.48-17.893-1.48-17.893-0.427 0.027-1.587 0.307-1.587 0.307zM23.147 7.28c0 0-0.653-2.4-3.253-3.040 0 0-0.76-0.187-1.56-0.293 0 0-2.907 3.747-1.493 17.907 0.013 0.093 0.080 0.107 0.080 0.107 0.093 0.040 0.133-0.040 0.133-0.040 0.96-1.373 5.2-7.68 6.067-11.52 0 0 0.48-1.867 0.027-3.12zM19.253 24.707c0 0-0.093 0-0.12 0.067 0 0-0.013 0.093 0.040 0.133 0.933 0.68 3.8 2.667 5.173 3.067 0 0 0.213 0.067 0.573 0.080h0.187c0.92-0.027 2.533-0.493 4-3.013zM29.693 13.493c0.187-2.747-2.587-5.293-2.587-5.307 0 0-5.133 6.213-8.893 14.4 0 0-0.040 0.107 0.027 0.173l0.053 0.013h0.080c1.413-0.707 7.28-3.693 9.707-6.053 0 0 1.533-1.24 1.613-3.227zM31.72 16.347c0 0-8.373 4.493-12.693 7.4 0 0-0.067 0.053-0.040 0.147 0 0 0.040 0.080 0.093 0.080 1.547 0 7.413 0 7.56-0.027 0 0 0.76-0.027 1.693-0.387 0 0 2.080-0.667 3.16-3.027 0 0 0.973-1.933 0.227-4.187z"></path>
</symbol>
<symbol id="icon-samsung" viewBox="0 0 32 32">
<title>samsung</title>
<path fill="#1428a0" style="fill: var(--color10, #1428a0)" d="M26.422 13.708l0.061 3.591h-0.031l-1.039-3.591h-1.712v4.523h1.131l-0.061-3.713h0.031l1.115 3.713h1.635v-4.523zM4.89 13.708l-0.856 4.569h1.238l0.627-4.157h0.031l0.611 4.157h1.223l-0.841-4.569zM11.797 13.708l-0.565 3.484h-0.031l-0.565-3.484h-1.864l-0.092 4.569h1.146l0.031-4.111h0.015l0.764 4.111h1.161l0.764-4.111h0.031l0.030 4.111h1.146l-0.107-4.569zM2.109 16.978c0.046 0.107 0.031 0.26 0.015 0.336-0.031 0.153-0.137 0.306-0.443 0.306-0.29 0-0.458-0.168-0.458-0.413v-0.443h-1.223v0.351c0 1.024 0.81 1.329 1.666 1.329 0.825 0 1.513-0.29 1.62-1.039 0.061-0.397 0.015-0.657 0-0.749-0.214-0.963-1.956-1.238-2.078-1.773-0.015-0.092-0.015-0.183 0-0.245 0.031-0.153 0.138-0.306 0.413-0.306s0.428 0.168 0.428 0.413v0.275h1.146v-0.321c0-0.993-0.902-1.146-1.543-1.146-0.81 0-1.482 0.275-1.605 1.009-0.031 0.199-0.046 0.382 0.015 0.611 0.183 0.947 1.819 1.223 2.048 1.803zM16.978 16.978c0.046 0.107 0.030 0.245 0.015 0.336-0.031 0.153-0.138 0.306-0.443 0.306-0.29 0-0.458-0.168-0.458-0.413v-0.443h-1.223v0.351c0 1.009 0.795 1.314 1.651 1.314 0.825 0 1.498-0.275 1.605-1.039 0.061-0.397 0.015-0.642 0-0.749-0.183-0.947-1.91-1.238-2.032-1.757-0.015-0.092-0.015-0.183 0-0.245 0.031-0.153 0.137-0.306 0.413-0.306 0.26 0 0.428 0.168 0.428 0.413v0.275h1.131v-0.321c0-0.993-0.886-1.146-1.528-1.146-0.81 0-1.467 0.26-1.589 1.009-0.031 0.199-0.031 0.382 0.015 0.611 0.183 0.947 1.788 1.207 2.017 1.803zM20.829 17.589c0.321 0 0.413-0.214 0.443-0.336 0.015-0.046 0.015-0.122 0.015-0.168v-3.377h1.161v3.286c0 0.092 0 0.26-0.015 0.306-0.076 0.856-0.749 1.131-1.589 1.131s-1.513-0.275-1.589-1.131c0-0.046-0.015-0.214-0.015-0.306v-3.286h1.161v3.377c0 0.061 0 0.122 0.015 0.168 0 0.122 0.092 0.336 0.413 0.336zM30.365 17.543c0.336 0 0.443-0.214 0.474-0.336 0.015-0.046 0.015-0.122 0.015-0.168v-0.657h-0.474v-0.672h1.62v1.223c0 0.092 0 0.153-0.015 0.306-0.076 0.84-0.795 1.131-1.605 1.131s-1.528-0.29-1.605-1.131c-0.015-0.153-0.015-0.214-0.015-0.306v-1.925c0-0.077 0.015-0.229 0.015-0.306 0.107-0.856 0.795-1.131 1.605-1.131s1.513 0.275 1.605 1.131c0.015 0.137 0.015 0.306 0.015 0.306v0.153h-1.146v-0.26c0 0 0-0.107-0.015-0.168-0.015-0.107-0.107-0.336-0.458-0.336-0.336 0-0.428 0.214-0.458 0.336-0.015 0.061-0.015 0.138-0.015 0.214v2.094c0 0.061 0 0.122 0.015 0.168 0 0.122 0.122 0.336 0.443 0.336z"></path>
</symbol>
<symbol id="icon-arrow-up" viewBox="0 0 32 32">
<title>arrow-up</title>
<path d="M16 1l-15 15h9v16h12v-16h9z"></path>
</symbol>
<symbol id="icon-arrow-right" viewBox="0 0 32 32">
<title>arrow-right</title>
<path d="M31 16l-15-15v9h-16v12h16v9z"></path>
</symbol>
<symbol id="icon-arrow-down" viewBox="0 0 32 32">
<title>arrow-down</title>
<path d="M16 31l15-15h-9v-16h-12v16h-9z"></path>
</symbol>
<symbol id="icon-arrow-left" viewBox="0 0 32 32">
<title>arrow-left</title>
<path d="M1 16l15 15v-9h16v-12h-16v-9z"></path>
</symbol>
</defs>
</svg>
